<svg xmlns="http://www.w3.org/2000/svg" width="639.04" height="94.47" viewBox="0 0 639.04 94.47"><title>Banner</title><path d="M154.48,78.39a18.12,18.12,0,0,1-6.34-1.09,16.12,16.12,0,0,1-5.15-3,14.86,14.86,0,0,1-3.52-4.6,13.6,13.6,0,0,1-1.38-5.76,17.74,17.74,0,0,1,1.27-7.25A20,20,0,0,1,142.92,51a22,22,0,0,1,5-4.17,33.58,33.58,0,0,1,5.8-2.79,16.79,16.79,0,0,1-3-2.1,15.92,15.92,0,0,1-2.5-2.75A14.67,14.67,0,0,1,146.5,36a9.08,9.08,0,0,1-.65-3.33,18.06,18.06,0,0,1,2.07-9.2,23.89,23.89,0,0,1,5.69-7.07,25.94,25.94,0,0,1,7.79-4.53,24.27,24.27,0,0,1,8.44-1.59,11.16,11.16,0,0,1,4.71.91,10,10,0,0,1,3.19,2.25,9.67,9.67,0,0,1,2.54,5.76,16.18,16.18,0,0,1-.62,4.86,22.59,22.59,0,0,1-1.74,4.46,12.88,12.88,0,0,1-2.36,3.26A3.75,3.75,0,0,1,173,33a7.1,7.1,0,0,1-2-.29,13,13,0,0,1-2-.73,9,9,0,0,1-2.32-1.52,10.3,10.3,0,0,0,3.33-2.07,13.14,13.14,0,0,0,2.43-3A13.77,13.77,0,0,0,173.94,22a13.18,13.18,0,0,0,.47-3.37A5.93,5.93,0,0,0,173.32,15a3.93,3.93,0,0,0-3.26-1.27A13.78,13.78,0,0,0,164,15.22a17.43,17.43,0,0,0-5.4,4.13,19.4,19.4,0,0,0-3.7,6.31,17.6,17.6,0,0,0-.91,7.94,11.32,11.32,0,0,0,2,5.51A20,20,0,0,0,159,42.58l2.17-.25a17.82,17.82,0,0,1,1.88-.11,7.38,7.38,0,0,1,2.46.43q1.23.44,1.23,1.23a4,4,0,0,1-.25,1.3,4.14,4.14,0,0,1-.83,1.38,5.09,5.09,0,0,1-1.38,1.09,3.88,3.88,0,0,1-1.88.44,6.51,6.51,0,0,1-2.1-.44,18.19,18.19,0,0,1-2.46-1.09,14.34,14.34,0,0,0-5,2.07,15.61,15.61,0,0,0-3.81,3.52,16.42,16.42,0,0,0-2.43,4.42,12.33,12.33,0,0,0-.8,4.64,18.54,18.54,0,0,0,.65,4.24,11.31,11.31,0,0,0,1.81,3.81A9.36,9.36,0,0,0,151.54,72,10.21,10.21,0,0,0,156.36,73a9.31,9.31,0,0,0,4-.91A17.15,17.15,0,0,0,164,69.83a22.76,22.76,0,0,0,3-3,32.85,32.85,0,0,0,2.39-3.26q1-1.59,1.7-2.9t1-1.88a1.46,1.46,0,0,1,.62-.65,1,1,0,0,1,.8-.11,1,1,0,0,1,.62.54,2,2,0,0,1,0,1.3,26.38,26.38,0,0,1-2.17,5.83,27.55,27.55,0,0,1-4.1,6.05A23,23,0,0,1,162,76.46,14.89,14.89,0,0,1,154.48,78.39Z" transform="translate(-7 -10.11)" fill="#0e2932"/><path d="M213,61.57a21.45,21.45,0,0,1,.33-3.48q.33-2,.83-4t1-4q.51-2,.87-3.48a4.4,4.4,0,0,0-.07-2.9,1.79,1.79,0,0,0-1.74-1,6.15,6.15,0,0,0-2.28,1,14.73,14.73,0,0,0-3.7,3.52,32.25,32.25,0,0,0-3.91,6.74,43.88,43.88,0,0,0-3,10.76,9,9,0,0,1-2.61.94c-.43.1-.82.17-1.16.22q-1.45.07-1.88-.47t.15-2.65q.29-1,1.05-3.26t1.49-4.89q.72-2.64,1.27-5.29a23.3,23.3,0,0,0,.54-4.6,2.82,2.82,0,0,0-.47-1.88,1.74,1.74,0,0,0-1.34-.51,6.1,6.1,0,0,0-2.17.72,11.75,11.75,0,0,0-3.41,2.83A26.26,26.26,0,0,0,189,51.68a42.9,42.9,0,0,0-3.15,9.68v-.14l-.29,1.16a7,7,0,0,0-.22,1.09,7.33,7.33,0,0,1-.22,1.09l-3.62,1.59a3.86,3.86,0,0,1-.91.22,1.64,1.64,0,0,1-1-.18,1.59,1.59,0,0,1-.69-1.05,5.32,5.32,0,0,1,.15-2.39l4.57-18.92q.22-.94.36-1.81a12.05,12.05,0,0,0,.18-1.56,4,4,0,0,0-.11-1.27,17,17,0,0,1,2.17-.87q.94-.29,1.52-.43a4.41,4.41,0,0,1,1.23-.22q2.32,0,1.52,4-.29,1.16-.87,3.41a37.93,37.93,0,0,1,2.94-3.3A33.13,33.13,0,0,1,195.72,39a15.81,15.81,0,0,1,3.23-2,7.9,7.9,0,0,1,3.23-.72,3,3,0,0,1,2.07.72,4.86,4.86,0,0,1,1.3,1.92,8.79,8.79,0,0,1,.54,2.83,20.09,20.09,0,0,1-.15,3.37q1.16-1.52,2.57-3.08a24.74,24.74,0,0,1,3-2.79,17.11,17.11,0,0,1,3.23-2,7.67,7.67,0,0,1,3.33-.8,3.86,3.86,0,0,1,3,1.16,6.38,6.38,0,0,1,1.45,3,13,13,0,0,1,.22,3.91,31,31,0,0,1-.62,4.06l-2.46,9.78q-.8,3.63,1.52,3.63a6.62,6.62,0,0,0,4-1.74,32.33,32.33,0,0,0,4.24-4.13q2.07-2.39,3.88-4.93t3-4.06a1.54,1.54,0,0,1,.91-.58,1,1,0,0,1,.8.18,1.09,1.09,0,0,1,.36.83A3,3,0,0,1,238,49q-1.45,2.54-3.55,5.62a48.61,48.61,0,0,1-4.6,5.76,27.79,27.79,0,0,1-5.33,4.49,10.74,10.74,0,0,1-5.87,1.81,9.12,9.12,0,0,1-2-.22,5.08,5.08,0,0,1-1.81-.8,4.21,4.21,0,0,1-1.34-1.56A5.41,5.41,0,0,1,213,61.57Z" transform="translate(-7 -10.11)" fill="#0e2932"/><path d="M238.41,37.65a2.78,2.78,0,0,1,1.38-.72,19.28,19.28,0,0,1,2.1-.47,16.39,16.39,0,0,1,2-.22,3.64,3.64,0,0,1,1.05,0,5.53,5.53,0,0,1-.36,1.52q-.43,1.45-1.09,3.41t-1.38,4q-.73,2.07-1.09,3.37t-.87,2.94q-.51,1.63-.91,3.19a20.54,20.54,0,0,0-.54,2.93,3.89,3.89,0,0,0,.22,2.1,2.84,2.84,0,0,0,.8,1.2,1.54,1.54,0,0,0,.94.33,6.84,6.84,0,0,0,3.66-1.59,40.84,40.84,0,0,0,4.49-3.81q2.28-2.21,4.24-4.49a46,46,0,0,0,2.9-3.66,2.78,2.78,0,0,1,1.2-.94,1.05,1.05,0,0,1,1,.07,1.18,1.18,0,0,1,.44.94,2.82,2.82,0,0,1-.47,1.52,38.46,38.46,0,0,1-3.41,4.82,71.46,71.46,0,0,1-4.78,5.36,44,44,0,0,1-5,4.38,8,8,0,0,1-4,1.88,5.67,5.67,0,0,1-2.43-.4,7.69,7.69,0,0,1-2.17-1.3,7.45,7.45,0,0,1-1.63-2,5.24,5.24,0,0,1-.72-2.36,27.77,27.77,0,0,1,0-5,61.7,61.7,0,0,1,.8-6.45,52.71,52.71,0,0,1,1.49-6.27A13.5,13.5,0,0,1,238.41,37.65Zm10-15.44a4.29,4.29,0,0,1-.83,1.56A5.48,5.48,0,0,1,246.2,25a4.45,4.45,0,0,1-1.56.62,1.49,1.49,0,0,1-1.3-.29,3.46,3.46,0,0,1-1.59-2.5,4.34,4.34,0,0,1,.65-2.54,7.28,7.28,0,0,1,1.81-2,4.71,4.71,0,0,1,1.88-1,1.53,1.53,0,0,1,1.34.33,3,3,0,0,1,.83,1.23,5.34,5.34,0,0,1,.33,1.7A5.12,5.12,0,0,1,248.41,22.21Z" transform="translate(-7 -10.11)" fill="#0e2932"/><path d="M251.74,63.74q3.19-13.41,5.11-21.53l2.94-12.39q1.16-5.07,1.59-7,.22-1.38.36-2.68a19.44,19.44,0,0,0,.14-2.39,10.78,10.78,0,0,0-.22-2.25,5.51,5.51,0,0,1,1.27-.58q.69-.22,1.34-.36c.53-.15,1.06-.26,1.59-.36a8.21,8.21,0,0,1,1.45-.15,5.17,5.17,0,0,1,1.09.11.83.83,0,0,1,.65.47,1.77,1.77,0,0,1,.4,1.45q0,1.09-.18,2.25-.29,1.38-.65,3-.87,3.12-2.39,9-1.3,5-3.51,13.63t-5.54,21.74a2,2,0,0,1-.87.51,3.44,3.44,0,0,1-.94.14,8.89,8.89,0,0,1-1.09-.07,4.68,4.68,0,0,1-1-.43,4.92,4.92,0,0,1-.87-.76A3,3,0,0,1,251.74,63.74Z" transform="translate(-7 -10.11)" fill="#0e2932"/><path d="M288.13,38.23A9,9,0,0,1,290,37.11a8.1,8.1,0,0,1,1.63-.54,4.48,4.48,0,0,1,1.59-.15q2,.15,2.43,1.23a6.83,6.83,0,0,1,.11,3.48,21.17,21.17,0,0,1-.87,3.12q-.65,1.89-1.52,4.6T291.5,55q-1,3.48-1.85,7.83-.87,3.55-1.88,8.19-.87,4.06-2.07,9.78T283.13,94q-.36,1.81-1.56,2.1a3.83,3.83,0,0,1-2.5-.29,6.69,6.69,0,0,1-.94-.65c-.24-.24-.51-.52-.8-.83A3.72,3.72,0,0,1,276.6,93q1.67-6.09,2.93-11.09t2.28-8.7q1.09-4.28,2-7.68.36-1.52.69-3t.69-2.94a30.93,30.93,0,0,1-2,2.9,14,14,0,0,1-2.39,2.39A10.28,10.28,0,0,1,278,66.46a6.34,6.34,0,0,1-3.08.33q-3.91-.51-5.54-2.9A9.83,9.83,0,0,1,268,57.66a22.73,22.73,0,0,1,.43-3.33q.36-1.81.8-3.48t.83-3q.4-1.34.62-1.92a47.88,47.88,0,0,0,1.27-4.71,3.83,3.83,0,0,0-.62-3.26,7.16,7.16,0,0,1,1.92-.91q.91-.25,1.63-.4a9,9,0,0,1,1.59,0q2,.29,2.28,1.45a7.3,7.3,0,0,1-.25,3.48q-.29,1.23-.94,3.15t-1.38,3.95q-.73,2-1.3,3.73a12.77,12.77,0,0,0-.65,2.43,10.41,10.41,0,0,0-.07,5,2.41,2.41,0,0,0,2.54,1.78,3.72,3.72,0,0,0,2.1-.83,14,14,0,0,0,2.36-2.21,28.82,28.82,0,0,0,2.36-3.15q1.16-1.78,2.14-3.59t1.74-3.55a21.7,21.7,0,0,0,1.12-3.12q.51-2.68.65-4.2A3.42,3.42,0,0,0,288.13,38.23Z" transform="translate(-7 -10.11)" fill="#0e2932"/><path d="M337.67,56.94a1.41,1.41,0,0,1,.74-.39.62.62,0,0,1,.54.15.6.6,0,0,1,.13.56,2,2,0,0,1-.54.89l-2.16,2.14a21.46,21.46,0,0,1-2.64,2.18,9.68,9.68,0,0,0,1.6,2.1,3,3,0,0,0,1.08.67,1,1,0,0,1-.39.35l-.65.39-.87.48a5.43,5.43,0,0,1-1.95.61,2.56,2.56,0,0,1-1.3-.22,1.81,1.81,0,0,1-.8-.78A6,6,0,0,1,330,65a.34.34,0,0,1,0-.22.18.18,0,0,0,0-.13,19,19,0,0,1-2.9.91,14.09,14.09,0,0,1-3.16.35,6.12,6.12,0,0,1-3.35-.82,5.33,5.33,0,0,1-1.9-2,7.06,7.06,0,0,1-.76-2.62,9.45,9.45,0,0,1,.09-2.57,12,12,0,0,1,2.49-5.19,57.07,57.07,0,0,1,5.6-6.19c.14-.14.3-.29.48-.43s.33-.29.48-.43q0-1.17.07-2.23t.15-2.06c0-.26.06-.51.09-.76a7.48,7.48,0,0,1,.13-.76,10.63,10.63,0,0,1,1.38-3.7,10,10,0,0,1,2.1-2.42,7.7,7.7,0,0,1,2.25-1.32A5.84,5.84,0,0,1,335,32a4.37,4.37,0,0,1,1.15.17,2.86,2.86,0,0,1,1.13.61,2.72,2.72,0,0,1,.76,1.17,3.88,3.88,0,0,1,.09,1.86,9.44,9.44,0,0,1-.54,1.86,10.79,10.79,0,0,1-1.12,2,26,26,0,0,1-2,2.53q-1.28,1.43-3.22,3.42l-.33.3a1.9,1.9,0,0,0-.28.3,56.09,56.09,0,0,0,.93,7.66q.71,3.68,1.36,6.32c.06.23.1.39.13.48q.91-.56,1.69-1.15t1.36-1.1l1-.91Zm-12,6a10.48,10.48,0,0,0,1.82-.15q.86-.15,1.73-.37-.39-1.3-.84-3.2t-.8-4.28q-.17-1.25-.28-2.51T327.11,50q-5,5.58-5.5,8.61a5.29,5.29,0,0,0,0,1.36,3.28,3.28,0,0,0,.52,1.43,3.37,3.37,0,0,0,1.28,1.13A4.8,4.8,0,0,0,325.69,63Zm5.24-25.18a42.39,42.39,0,0,0-.39,4.46q2.08-2,3.55-3.63a6.08,6.08,0,0,0,1.69-2.86,2.26,2.26,0,0,0-.15-1.19.88.88,0,0,0-.89-.58,2.82,2.82,0,0,0-1.34.35,4.3,4.3,0,0,0-1.15.89,5.51,5.51,0,0,0-.84,1.21A5,5,0,0,0,330.92,37.77Z" transform="translate(-7 -10.11)" fill="#0e2932"/><path d="M376.83,78.39a12.62,12.62,0,0,1-6.56-1.74,15.7,15.7,0,0,1-5-4.78,22.59,22.59,0,0,1-3.12-7.14,31.06,31.06,0,0,1-.91-8.73,60.67,60.67,0,0,1,1.12-9.42,70.15,70.15,0,0,1,2.79-10.18,69,69,0,0,1,4.38-9.86,41.46,41.46,0,0,1,5.91-8.37,28.63,28.63,0,0,1,7.39-5.83,18.34,18.34,0,0,1,8.92-2.21,9.9,9.9,0,0,1,5,1.2,9.7,9.7,0,0,1,3.33,3.15,12.82,12.82,0,0,1,1.78,4.42,21.76,21.76,0,0,1,.44,5,26.51,26.51,0,0,1-.69,4.64,16.16,16.16,0,0,1-1.52,4,8.64,8.64,0,0,1-2.39,2.83,5.26,5.26,0,0,1-3.23,1.05,3.62,3.62,0,0,1-1.67-.58,6.42,6.42,0,0,1-1.49-1.3A8.67,8.67,0,0,1,389.94,32,6.15,6.15,0,0,0,393,29.21a17.87,17.87,0,0,0,1.7-4.17,29.88,29.88,0,0,0,.87-5.51q.15-3-1.23-4.35a4.31,4.31,0,0,0-3.12-1.38q-3.41,0-7.17,3.55a37,37,0,0,0-7,9.6,68.57,68.57,0,0,0-5.44,14.1,75.53,75.53,0,0,0-2.57,17,25.55,25.55,0,0,0,.54,6.88,13.68,13.68,0,0,0,2,4.64,7.82,7.82,0,0,0,2.86,2.61,7.07,7.07,0,0,0,3.19.8,10.85,10.85,0,0,0,4.78-1.09,18.75,18.75,0,0,0,4.09-2.68,24.08,24.08,0,0,0,3.19-3.3,23.42,23.42,0,0,0,2.07-3,2.32,2.32,0,0,1,1.09-1.16,1,1,0,0,1,1,.11,1.64,1.64,0,0,1,.58,1,2.65,2.65,0,0,1-.29,1.63,36.12,36.12,0,0,1-3,4.93,28.16,28.16,0,0,1-4,4.46,19.82,19.82,0,0,1-4.82,3.23A12.76,12.76,0,0,1,376.83,78.39Z" transform="translate(-7 -10.11)" fill="#0e2932"/><path d="M439.37,49a1.57,1.57,0,0,1,1.05-.62,1.07,1.07,0,0,1,.87.29,1.23,1.23,0,0,1,.29,1,2.82,2.82,0,0,1-.62,1.45,47.25,47.25,0,0,1-3.19,3.88q-1.81,2-3.88,3.88t-4.17,3.55a30.07,30.07,0,0,1-4.06,2.75A7.85,7.85,0,0,1,422,66.35a3.93,3.93,0,0,1-2.94-1.88,5.53,5.53,0,0,1-1.27-3.59,20.27,20.27,0,0,1,.83-4.82q.51-1.81,1.41-4.31a43,43,0,0,0,1.45-4.82,11.19,11.19,0,0,0,.33-4A1.7,1.7,0,0,0,420,41.35a4.94,4.94,0,0,0-2.5.8,15.36,15.36,0,0,0-2.68,2.07,24.7,24.7,0,0,0-2.57,2.86A36.55,36.55,0,0,0,410,50.19q-.58,2.83-1.16,5.58-.51,2.32-1.05,5t-1.05,4.82a2.57,2.57,0,0,1-.94.51,3.45,3.45,0,0,1-.94.14,7.21,7.21,0,0,1-1-.07,4.32,4.32,0,0,1-1.09-.43,5,5,0,0,1-.87-.76,3,3,0,0,1-.65-1.27q3.26-13.41,5.15-21.53t2.9-12.39q1.16-5.07,1.59-7,.22-1.38.36-2.68a19.44,19.44,0,0,0,.14-2.39,10.78,10.78,0,0,0-.22-2.25,5.51,5.51,0,0,1,1.27-.58q.69-.22,1.34-.36c.53-.15,1.06-.26,1.59-.36a8.21,8.21,0,0,1,1.45-.15,5.17,5.17,0,0,1,1.09.11.83.83,0,0,1,.65.47,1.77,1.77,0,0,1,.4,1.45q0,1.09-.18,2.25-.29,1.38-.65,3-1.52,5.87-3.41,11.42t-3.48,11.85a28.07,28.07,0,0,1,2.25-3,22.28,22.28,0,0,1,2.86-2.79,16.61,16.61,0,0,1,3.3-2.1,8.46,8.46,0,0,1,3.7-.83,5.63,5.63,0,0,1,1.92.33,3.94,3.94,0,0,1,1.59,1.09,5.06,5.06,0,0,1,1.05,2,10.25,10.25,0,0,1,.29,3.15,11.85,11.85,0,0,1-.25,2.39q-.25,1.23-.69,2.72t-1.12,3.3q-.69,1.81-1.63,4.2-.65,1.67-1,2.83a2.43,2.43,0,0,0,.14,2q.65,1.16,2.57.54A21.45,21.45,0,0,0,432,56.71q.87-.72,2-1.81t2.1-2.21q1-1.12,1.88-2.14T439.37,49Z" transform="translate(-7 -10.11)" fill="#0e2932"/><path d="M433.79,64.54a2.55,2.55,0,0,1-1.12,1.05,1.46,1.46,0,0,1-1.09.07,1,1,0,0,1-.62-.76,2.17,2.17,0,0,1,.29-1.45l1-2Q433,60,434,57.84l2.28-4.64q1.23-2.5,2.36-4.75t2.07-4q.94-1.78,1.38-2.57-.8-.72-1.09-1.05a2.89,2.89,0,0,1-.44-1.41,5.07,5.07,0,0,1,.44-2.46A14.67,14.67,0,0,1,442.56,34a12.18,12.18,0,0,1,2.1-2.43,3.48,3.48,0,0,1,2.25-1,3.13,3.13,0,0,1,2.86,1.3,6.18,6.18,0,0,1,1,2.68,7.13,7.13,0,0,1-.15,2.39,7,7,0,0,1-1.09,2.61,5.17,5.17,0,0,0,.58.33,2.73,2.73,0,0,0,1.16.18,6.26,6.26,0,0,0,1.63-.15,5.52,5.52,0,0,1,1.49-.15,3.23,3.23,0,0,1,2,.62,5,5,0,0,1,1.3,1.52,7.76,7.76,0,0,1,.76,2,12.88,12.88,0,0,1,.33,1.92,6,6,0,0,1-.94,3.77q-1.16,2-2.83,4.28-1,1.45-2,3.26a5.62,5.62,0,0,0-.87,3.26,4,4,0,0,0,.51,1.52q.36.58,2,.58a5.33,5.33,0,0,0,2.72-.91,20.45,20.45,0,0,0,3-2.32,41.76,41.76,0,0,0,3.08-3.12q1.52-1.7,2.83-3.33t2.21-2.94q.91-1.3,1.34-1.88a1.87,1.87,0,0,1,.94-.8,1.23,1.23,0,0,1,1,0,1.09,1.09,0,0,1,.54.87,2.78,2.78,0,0,1-.54,1.74q-.44.73-1.49,2.32t-2.54,3.55q-1.49,2-3.3,4a37.3,37.3,0,0,1-3.8,3.77,23.54,23.54,0,0,1-4,2.79,8,8,0,0,1-3.81,1.09,6.08,6.08,0,0,1-3.12-.72,6.47,6.47,0,0,1-2-1.78,6.78,6.78,0,0,1-1.09-2.32,7.45,7.45,0,0,1-.25-2.36,6.29,6.29,0,0,1,.47-1.85q.4-1,.94-2t1.16-2.1q.61-1,1.12-2.07,1.23-2.1,2-3.59a5.76,5.76,0,0,0,.76-2.5,2.31,2.31,0,0,0-.29-1.16,1,1,0,0,0-.94-.51,3.66,3.66,0,0,0-.62,0,1.76,1.76,0,0,1-.36,0l-.51,0a9.46,9.46,0,0,1-1,0,3.91,3.91,0,0,1-1.59-.29,7.73,7.73,0,0,0-1.23-.43q-.29.51-1.3,2.17t-2.36,3.91l-2.83,4.71-2.79,4.6-2.21,3.62Q434,64.25,433.79,64.54Z" transform="translate(-7 -10.11)" fill="#0e2932"/><path d="M472.64,37.65a2.78,2.78,0,0,1,1.38-.72,19.28,19.28,0,0,1,2.1-.47,16.39,16.39,0,0,1,2-.22,3.64,3.64,0,0,1,1.05,0,5.53,5.53,0,0,1-.36,1.52q-.43,1.45-1.09,3.41t-1.38,4q-.73,2.07-1.09,3.37t-.87,2.94q-.51,1.63-.91,3.19a20.54,20.54,0,0,0-.54,2.93,3.89,3.89,0,0,0,.22,2.1,2.84,2.84,0,0,0,.8,1.2,1.54,1.54,0,0,0,.94.33,6.84,6.84,0,0,0,3.66-1.59A40.84,40.84,0,0,0,483,55.88q2.28-2.21,4.24-4.49a46,46,0,0,0,2.9-3.66,2.78,2.78,0,0,1,1.2-.94,1.05,1.05,0,0,1,1,.07,1.18,1.18,0,0,1,.44.94,2.82,2.82,0,0,1-.47,1.52,38.46,38.46,0,0,1-3.41,4.82,71.46,71.46,0,0,1-4.78,5.36,44,44,0,0,1-5,4.38,8,8,0,0,1-4,1.88,5.67,5.67,0,0,1-2.43-.4,7.69,7.69,0,0,1-2.17-1.3,7.45,7.45,0,0,1-1.63-2,5.24,5.24,0,0,1-.72-2.36,27.77,27.77,0,0,1,0-5,61.7,61.7,0,0,1,.8-6.45,52.71,52.71,0,0,1,1.49-6.27A13.5,13.5,0,0,1,472.64,37.65Zm10-15.44a4.29,4.29,0,0,1-.83,1.56A5.48,5.48,0,0,1,480.43,25a4.45,4.45,0,0,1-1.56.62,1.49,1.49,0,0,1-1.3-.29,3.46,3.46,0,0,1-1.59-2.5,4.34,4.34,0,0,1,.65-2.54,7.28,7.28,0,0,1,1.81-2,4.71,4.71,0,0,1,1.88-1,1.53,1.53,0,0,1,1.34.33,3,3,0,0,1,.83,1.23,5.34,5.34,0,0,1,.33,1.7A5.12,5.12,0,0,1,482.64,22.21Z" transform="translate(-7 -10.11)" fill="#0e2932"/><path d="M497.28,62.44a2,2,0,0,0,1.12.29,3.51,3.51,0,0,0,1.38-.29,5.2,5.2,0,0,0,1.3-.8,3,3,0,0,0,.91-1.3,4.49,4.49,0,0,0,0-2.28,21.69,21.69,0,0,0-.91-3.19q-.62-1.7-1.34-3.44t-1.23-3.19c-.29-.73-.53-1.4-.72-2s-.37-1.05-.54-1.56a9.38,9.38,0,0,0-.4-1.05q-.36.58-1.27,1.88t-2,2.72q-1.05,1.41-2,2.61t-1.3,1.63a2.17,2.17,0,0,1-1.12.76,1,1,0,0,1-.91-.22,1.31,1.31,0,0,1-.4-.94,2.55,2.55,0,0,1,.54-1.49q.44-.58,1.3-1.85t1.74-2.61q.87-1.34,1.59-2.39a9,9,0,0,0,.8-1.27,2.17,2.17,0,0,0-.4-1.52,2.68,2.68,0,0,1-.18-2.17,7.54,7.54,0,0,1,1.3-2.36A13.32,13.32,0,0,1,497,34a10.53,10.53,0,0,1,2.83-1.63,3.16,3.16,0,0,1,2.61,0A6.31,6.31,0,0,1,504,33.63a1.64,1.64,0,0,1,.43,1.41q-.15.36-.43.94a12,12,0,0,1-.87,1.41q-.58.83-1.67,2.14a20.44,20.44,0,0,0,.62,3q.4,1.38.76,2.39a19.49,19.49,0,0,0,.94,2.25q.65,1.3,1.38,2.68t1.3,2.72a25.78,25.78,0,0,1,.94,2.5,4.21,4.21,0,0,1,.22,2,9.17,9.17,0,0,1-1.27,3,19.5,19.5,0,0,1-2.61,3.37,16.08,16.08,0,0,1-3.55,2.79A8.17,8.17,0,0,1,496,67.37a5.22,5.22,0,0,1-2.94-.94,10.31,10.31,0,0,1-3.84-4.71,2.27,2.27,0,0,1-.11-1.88,10.53,10.53,0,0,1,.8-1.38A7.65,7.65,0,0,1,491,57.29q.29-.22.72-.51a5.27,5.27,0,0,1,1-.43l1.52-.51a33.53,33.53,0,0,0,1.3,3.51q.58,1.27.94,2A3.66,3.66,0,0,0,497.28,62.44Z" transform="translate(-7 -10.11)" fill="#0e2932"/><line x1="132.02" y1="82.52" x2="257.09" y2="82.52" fill="none" stroke="#0e2932" stroke-miterlimit="10"/><line x1="291.02" y1="82.52" x2="500.83" y2="82.52" fill="none" stroke="#0e2932" stroke-miterlimit="10"/><path d="M98.9,69.16c-.65-.93-6-5.9-4.78-8.22.38-.73,4,3.11.39-1.53-3.76-4.81-2.6-10.95,0-15.67.26-.47.13,1.76,1.33,1.22.86-3.48-1.16-7.1,2.23-3.1,1.27,1.49.61-6.33,3.43-3,.81-.05,1-5,1.81-3.81,1.39,1.93,1.63-.74,5-2.6.56-.31,9.18-4.32,5.78-1.28-2.36,2.1,4.25,17,4.06,20-.22,3.39.89,4-1.28,7.52-1.65,2.72-2.28,3.59-5.43,5.32.13-.08,4.45-1.18.78.84-2.24,1.23-6.57,4.91-9.67,3.55,0,0-4.54,0-4.8,0l1.08.82Z" transform="translate(-7 -10.11)" fill="#486f56" fill-rule="evenodd"/><path d="M86.26,45.82C83.6,43.25,79.7,42.49,77,37.51c-.65-1.18,4.71,1.6.4-1.33-1.91-1.3-3-4.52-1.79-6.31s3.23-5.83,1.78-8c.3-.37,1.64.9,2.12.75,1.72,1.55-.95-5.85,2.76-2.49.15.13,1.86-4.46,2.38-5.51,2.79-5.66.66-3,4.48,2.23.69,1-.37-2.89,1.21,1.06s1.42,3.32,2.55,2.36c-.38-1.23,2,4.13,2.47,3.88,1.86-1,2.26,9,1.68,11.5-1,4.25-3.62,8.37-8,10.1-.89.36-2.06.79-2.79.1Z" transform="translate(-7 -10.11)" fill="#486f56" fill-rule="evenodd"/><path d="M94.26,65c-2,.22-7.72,3.1-9.88,2.11-.16.08,2.34-1.22.92-.92-.62.13-5.88-.83-6.45-1.41-.32-.32-3.08-1.7-2.64-1.94.85-.47,1-.2-1-1.39-2.82-1.67-7-10.07-4.91-8.14A19.49,19.49,0,0,0,74.1,53c.71-.22,2.47.16,1.92-.49-1-1.21.73-.13,1.91-.42,1.74-.43,5.29.8,6.7,2,1.07.91,4.21,1.86,5.35,4s2.86,3.57,4,6.44l.27.48Z" transform="translate(-7 -10.11)" fill="#486f56" fill-rule="evenodd"/><path d="M74.5,55.58c7.75,4.15,7.56,4.06,16.8,7l1.65.52c-3.21-4.82-5.75-9.21-6.84-12.28-2.61-7.31-1.34-25.39.54-33-1.18,6.7-1.62,26.4.53,32.48,1.35,3.8,5.56,10.44,10.48,17.37,0-9.92,1.5-13,9.24-23.41.8-1.08,5.25-7.81,4.39-9.83h0c1.41,3.16-4.19,11.64-5.94,13.85-5.28,6.68-6.39,12.88-7,20.3l-.06-.07c7.68,10.15,7.16,11,10.83,14.73a1.36,1.36,0,0,0-.42.51c-4.64-4.17-7.3-8.3-14.64-19l-3-1c-10.31-3.25-8.74-2.77-16.57-8.14Z" transform="translate(-7 -10.11)" fill="#3d5c47"/><path d="M68.2,70.31c-5.43-6.62-8.34-13.24-12-27.62C62.4,57.68,66.91,64.26,73.63,73A70.06,70.06,0,0,0,81,76c11.67,3.87,27.78,6.4,40.94,10.51C112.25,85,89.8,81,80.25,78.2q-1.11-.32-2.24-.71c-13.88,5.88-26.55,15.73-37.35,25.4,9.58-10.84,21-20.84,33.94-26.69a154.33,154.33,0,0,1-15-7.55C44.4,71.53,35.31,74.29,21.41,80.44a6.17,6.17,0,0,0-.18-.84C33,73.54,44.61,69.43,58,67.76a54.69,54.69,0,0,0-7.31-3.51c-3.45-1.19-32.66-3-41-4.36,6.34.22,26.26.55,36.71,1.6-4.27-4.09-6-7.38-12.6-20.29a16.85,16.85,0,0,1,3.54,4.56c5.66,9.26,8.92,13.18,11.4,16a19.86,19.86,0,0,1,3.35.66c3.39,1.14,9.71,4.61,16.16,7.88Z" transform="translate(-7 -10.11)" fill="#3d5c47" fill-rule="evenodd"/><path d="M40.89,58.35c1.32,4.12,12,4.3,9.27-5.52-.47-1.7-11.47-1.36-9.27,5.52Z" transform="translate(-7 -10.11)" fill="#486f56" fill-rule="evenodd"/><path d="M21.06,64.87c2,.69,6.06,4.34,6.34-2.71.23-6-8.66-4.54-6.34,2.71Z" transform="translate(-7 -10.11)" fill="#486f56" fill-rule="evenodd"/><path d="M32.89,63.72c1.17,3.66,7.6,5.22,6.12.59-2-6.29-6.85-2.88-6.12-.59Z" transform="translate(-7 -10.11)" fill="#486f56" fill-rule="evenodd"/><path d="M32.73,47.31c7.67,5,9.46-3.76,3-4-2-.07-4.37,3.08-3,4Z" transform="translate(-7 -10.11)" fill="#486f56" fill-rule="evenodd"/><path d="M42,78.14c1.55,7.12,11-5.65.65-2.35,0,0-.67,2.24-.65,2.35Z" transform="translate(-7 -10.11)" fill="#486f56" fill-rule="evenodd"/><path d="M33,73c-2.71,3.48,11.27,7.46,6.16-3.18-.78-1.62-5.81,1.34-5.83,3.23L33,73Z" transform="translate(-7 -10.11)" fill="#486f56" fill-rule="evenodd"/><path d="M30.36,81.14c-.3,3.59,9.54,2.57,4.42-1.76-1.23-1-4.42,1.78-4.42,1.76Z" transform="translate(-7 -10.11)" fill="#486f56" fill-rule="evenodd"/><path d="M27.93,56.78c2,3.68,10.11,1.15,5.42-3.32-.78-.74-7.3-.17-5.42,3.32Z" transform="translate(-7 -10.11)" fill="#486f56" fill-rule="evenodd"/><path d="M7,60.61c.52,5.14,9.72,6.87,6.43-5.12-.25-.91-6.23-1.1-6.19,4.47,0,.26-.27.41-.24.65Z" transform="translate(-7 -10.11)" fill="#486f56" fill-rule="evenodd"/><path d="M24.09,72.63c.24,4.62,4.85-1.76,2.26-1.48-2.18.24-2.35-.22-2.26,1.48Z" transform="translate(-7 -10.11)" fill="#486f56" fill-rule="evenodd"/><path d="M47.61,68.49c-2.05,5.16,6.7,6.5,5.26,2C52,68,51,66,47.92,67.47a9.72,9.72,0,0,0-.32,1Z" transform="translate(-7 -10.11)" fill="#486f56" fill-rule="evenodd"/><path d="M42.39,47.15c1.34,2.27,5.69.27,2.91-1.8-1.45-1.08-3.39,1-2.91,1.8Z" transform="translate(-7 -10.11)" fill="#486f56" fill-rule="evenodd"/><path d="M15.71,54.44c.54,4.2,8.58,1.73,5.11-3.2-.45-.65-4.35-.34-4.4,2.07,0,.3-.73,1-.71,1.13Z" transform="translate(-7 -10.11)" fill="#486f56" fill-rule="evenodd"/><path d="M19.68,82.39c8.84,3.05,5-9.39-.15-3.54-1.06,1.21-.36,3.36.15,3.54Z" transform="translate(-7 -10.11)" fill="#486f56" fill-rule="evenodd"/><path d="M71.8,79.09C73.12,83.21,64.56,89.54,61,80c-.61-1.66,8.55-7.78,10.75-.89Z" transform="translate(-7 -10.11)" fill="#486f56" fill-rule="evenodd"/><path d="M53.91,90.59c-1.25,1.74-2.42,7.05-6.73,1.48-3.66-4.72,4.41-8.73,6.73-1.48Z" transform="translate(-7 -10.11)" fill="#486f56" fill-rule="evenodd"/><path d="M64.7,50.52c1.17,3.66-3.16,8.66-4.64,4-2-6.28,3.9-6.33,4.64-4Z" transform="translate(-7 -10.11)" fill="#486f56" fill-rule="evenodd"/><path d="M43.31,89.54C40,98,33.42,92,38.57,88c1.63-1.24,5.34,0,4.74,1.5Z" transform="translate(-7 -10.11)" fill="#486f56" fill-rule="evenodd"/><path d="M72.79,59.81c2.87,6.69-12.21,1.77-1.89-1.54,0,0,1.85,1.43,1.89,1.54Z" transform="translate(-7 -10.11)" fill="#486f56" fill-rule="evenodd"/><path d="M64.74,59.38c4.23,1.26-4.84,12.62-6.86,1-.31-1.76,5.51-2.28,6.63-.76l.24-.24Z" transform="translate(-7 -10.11)" fill="#486f56" fill-rule="evenodd"/><path d="M79.87,82.15c2.33,2.75-6.27,7.64-4.62,1.14.4-1.56,4.64-1.12,4.62-1.14Z" transform="translate(-7 -10.11)" fill="#486f56" fill-rule="evenodd"/><path d="M46.58,100.34c.52,4.14-7.57,6.81-6.34.45.2-1,5.84-4.38,6.34-.45Z" transform="translate(-7 -10.11)" fill="#486f56" fill-rule="evenodd"/><path d="M59,79.42c2.56,4.48-3.91,11.24-8.21-.43-.33-.89,4.43-4.52,7.63,0,.15.21.46.18.58.39Z" transform="translate(-7 -10.11)" fill="#486f56" fill-rule="evenodd"/><path d="M56.93,54.16c2.48,3.9-5,1.38-2.7.11,1.91-1.07,1.78-1.54,2.7-.11Z" transform="translate(-7 -10.11)" fill="#486f56" fill-rule="evenodd"/><path d="M77.67,64.72c4.67,3-1.67,9.18-3.1,4.71-.82-2.58-1.09-4.81,2.25-5.36a9.51,9.51,0,0,1,.85.65Z" transform="translate(-7 -10.11)" fill="#486f56" fill-rule="evenodd"/><path d="M74.2,91.51c.23,2.62-4.48,3.53-3.41.23.55-1.72,3.33-1.16,3.41-.23Z" transform="translate(-7 -10.11)" fill="#486f56" fill-rule="evenodd"/><path d="M59.78,44.58c2,3.73-6,6.39-6,.36,0-.79,3.34-2.8,4.78-.87.18.24,1.16.38,1.23.51Z" transform="translate(-7 -10.11)" fill="#486f56" fill-rule="evenodd"/><path d="M67.2,91.54c-5.42,7.62-9.51-4.74-1.94-3,1.57.37,2.25,2.52,1.94,3Z" transform="translate(-7 -10.11)" fill="#486f56" fill-rule="evenodd"/><path d="M58.64,94.87c2.48,3.9-5,1.38-2.7.11,1.91-1.07,1.79-1.54,2.7-.11Z" transform="translate(-7 -10.11)" fill="#486f56" fill-rule="evenodd"/><path d="M581.06,73.74c8.78,3.43,15.15,8.21,26.44,20-14.05-11-21.94-14.93-33.09-19.66a77.15,77.15,0,0,0-8.72,1.05c-13.29,2.58-30.12,8.83-45,12,10.11-3.81,33.87-12,44.52-14.49q1.24-.29,2.53-.53c10.16-13.13,17-29.42,22.16-44.53-3.36,15.57-9,31.35-18.19,43.93a169.93,169.93,0,0,1,18.49-.85c13-11,20.27-18.51,30.3-31.9a6.79,6.79,0,0,0,.62.71c-8,12.16-17,22.37-28.88,31.16a60.22,60.22,0,0,0,8.91-.57c4-.72,33-14.71,41.73-17.93-6.21,3.21-25.51,13.63-36.11,18.26,6.31,1.63,9.74,3.84,23,12.68A18.55,18.55,0,0,1,624,80.63c-10.43-5.84-15.67-7.84-19.56-9.21a21.87,21.87,0,0,1-3.58,1.18c-3.87.73-11.81.81-19.77,1.15Z" transform="translate(-7 -10.11)" fill="#3d5c47" fill-rule="evenodd"/><path d="M613.73,70.49c-3.49-3.24-13.8,2.32-5.92,10.3,1.37,1.38,11.75-4.88,5.92-10.3Z" transform="translate(-7 -10.11)" fill="#486f56" fill-rule="evenodd"/><path d="M629.26,53.54c-2.31.43-8.16-.9-4.63,6,3,5.86,10.76-.31,4.63-6Z" transform="translate(-7 -10.11)" fill="#486f56" fill-rule="evenodd"/><path d="M618.51,61c-3.1-2.88-10.11-.91-6.2,2.73,5.32,4.95,8.14-.93,6.2-2.73Z" transform="translate(-7 -10.11)" fill="#486f56" fill-rule="evenodd"/><path d="M627.51,76.69c-10-.63-7.06,8.71-.72,5.42,2-1,2.53-5.31.72-5.42Z" transform="translate(-7 -10.11)" fill="#486f56" fill-rule="evenodd"/><path d="M602,52.07c-5.32-6-7.48,11.34.64,2.6,0,0-.57-2.51-.64-2.6Z" transform="translate(-7 -10.11)" fill="#486f56" fill-rule="evenodd"/><path d="M613.41,52.15c.73-4.8-14.84-1.08-4.2,6.37,1.62,1.13,4.85-4.42,3.86-6.25l.34-.12Z" transform="translate(-7 -10.11)" fill="#486f56" fill-rule="evenodd"/><path d="M611.55,42.94c-1.65-3.61-10.55,2.67-3.3,4.07,1.74.34,3.28-4.1,3.3-4.07Z" transform="translate(-7 -10.11)" fill="#486f56" fill-rule="evenodd"/><path d="M627,65c-3.88-2.46-10.33,4.35-3.42,6.1,1.14.29,7.1-3.77,3.42-6.1Z" transform="translate(-7 -10.11)" fill="#486f56" fill-rule="evenodd"/><path d="M645,50.05c-3.27-4.65-13-1.36-3.41,8.39.73.74,6.58-2.3,3.53-7.63-.14-.25,0-.54-.12-.76Z" transform="translate(-7 -10.11)" fill="#486f56" fill-rule="evenodd"/><path d="M622.16,47.72c-2.72-4.3-3.71,4.31-1.37,2.64,2-1.4,2.37-1.06,1.37-2.64Z" transform="translate(-7 -10.11)" fill="#486f56" fill-rule="evenodd"/><path d="M601.81,64.37c-.81-6.06-9.93-2.63-6.15.88,2.18,2,4.29,3.34,6.4.27a10.71,10.71,0,0,0-.25-1.15Z" transform="translate(-7 -10.11)" fill="#486f56" fill-rule="evenodd"/><path d="M618.33,82.05c-2.51-1.45-5.61,2.81-1.83,3.3,2,.25,2.72-2.78,1.83-3.3Z" transform="translate(-7 -10.11)" fill="#486f56" fill-rule="evenodd"/><path d="M640,60.66c-2.78-3.74-9.17,3-3.18,5.83.79.38,4.36-2,3.11-4.36-.16-.29.17-1.34.07-1.47Z" transform="translate(-7 -10.11)" fill="#486f56" fill-rule="evenodd"/><path d="M621.13,36c-10.13,1.84.27,11.7,2,3.32.37-1.73-1.46-3.42-2-3.32Z" transform="translate(-7 -10.11)" fill="#486f56" fill-rule="evenodd"/><path d="M572.87,67.24c-3.49-3.25,1.31-13.93,9.84-6.65,1.48,1.26-4,12.07-9.84,6.65Z" transform="translate(-7 -10.11)" fill="#486f56" fill-rule="evenodd"/><path d="M583.85,46.56c.26-2.34-1.48-8.07,5.66-5.05,6.06,2.56.47,10.76-5.66,5.05Z" transform="translate(-7 -10.11)" fill="#486f56" fill-rule="evenodd"/><path d="M595.09,90.84c-3.1-2.88-1.64-10,2.27-6.38,5.32,4.95-.34,8.18-2.27,6.38Z" transform="translate(-7 -10.11)" fill="#486f56" fill-rule="evenodd"/><path d="M594.59,41.85c-1.36-10,8.18-7.67,5.36-1.11-.89,2.07-5.11,2.91-5.36,1.11Z" transform="translate(-7 -10.11)" fill="#486f56" fill-rule="evenodd"/><path d="M582.31,86.29c-6.37-4.87,10.77-8.28,2.65.45,0,0-2.55-.38-2.65-.45Z" transform="translate(-7 -10.11)" fill="#486f56" fill-rule="evenodd"/><path d="M590.27,82.36c-4.74,1.07-2.16-14.73,6.05-4.65,1.25,1.53-4.06,5.16-6,4.3l-.1.35Z" transform="translate(-7 -10.11)" fill="#486f56" fill-rule="evenodd"/><path d="M563.48,68.66c-3.72-1.39,1.9-10.71,3.82-3.58.46,1.71-3.85,3.57-3.82,3.58Z" transform="translate(-7 -10.11)" fill="#486f56" fill-rule="evenodd"/><path d="M585.63,33.25c-2.74-3.69,3.59-10.62,5.84-3.85.37,1.12-3.25,7.35-5.84,3.85Z" transform="translate(-7 -10.11)" fill="#486f56" fill-rule="evenodd"/><path d="M584.94,60c-4.88-2.92-2.3-12.9,8.12-4,.79.68-1.82,6.73-7.35,4.08-.26-.13-.54.07-.77-.07Z" transform="translate(-7 -10.11)" fill="#486f56" fill-rule="evenodd"/><path d="M600.59,83.16c-4.49-2.41,4-4,2.53-1.56-1.26,2.06-.88,2.44-2.53,1.56Z" transform="translate(-7 -10.11)" fill="#486f56" fill-rule="evenodd"/><path d="M575,84.2c-6.1-.37-3.35-9.72.44-6.2,2.18,2,3.64,4,.73,6.36A10.47,10.47,0,0,1,575,84.2Z" transform="translate(-7 -10.11)" fill="#486f56" fill-rule="evenodd"/><path d="M563.87,56.62c-1.63-2.4,2.39-5.8,3.16-2.06.4,2-2.57,2.91-3.16,2.06Z" transform="translate(-7 -10.11)" fill="#486f56" fill-rule="evenodd"/><path d="M603,93.89c-3.94-2.5,2.29-9.36,5.58-3.59.43.76-1.69,4.49-4.12,3.42-.31-.13-1.32.26-1.46.18Z" transform="translate(-7 -10.11)" fill="#486f56" fill-rule="evenodd"/><path d="M570.57,52.82c1.1-10.24,11.69-.58,3.46,1.8-1.7.49-3.52-1.21-3.46-1.8Z" transform="translate(-7 -10.11)" fill="#486f56" fill-rule="evenodd"/><path d="M577,45c-4.49-2.4,4-4,2.53-1.56-1.26,2.06-.88,2.44-2.53,1.56Z" transform="translate(-7 -10.11)" fill="#486f56" fill-rule="evenodd"/><path d="M545.18,63.5c-.91.92-1.38-2.81-1.94-3.87-2.47-4.63.5-13.9,4.2-17.69a36.23,36.23,0,0,1,11.93-8c4.43-1.84,7.69-5.77,10.65-9.25,1.24-1.46-2,19.53-2.77,23.06-1.26,5.69-5.38,8.74-9.87,11.59-1.44.92-10.39,5.37-11.69,4.42l-.51-.24Z" transform="translate(-7 -10.11)" fill="#486f56" fill-rule="evenodd"/><path d="M533.57,83.61a113.73,113.73,0,0,1,11.24-20.39c5.2-7.77,9.58-12.24,12.75-21.77,0,7.38-8,17.43-11.33,22.89a161.13,161.13,0,0,0-9.56,17.28" transform="translate(-7 -10.11)" fill="#3d5c47" fill-rule="evenodd"/></svg>