<svg width="300" height="33" viewBox="0 0 300 33" xmlns="http://www.w3.org/2000/svg"><g fill="none" fill-rule="evenodd"><path d="M22.913 9.96c0-5.376-4.336-9.67-9.705-9.67L9.705.2v6.532h3.51a3.2 3.2 0 0 1 3.22 3.22c0 1.82-1.4 3.263-3.22 3.263h-3.51v6.45h3.51c5.37.006 9.698-4.33 9.698-9.705" fill="#D41A8A"/><path d="M0 .2h6.483v32.404H0V.2z" fill="#14A3BD"/><path d="M33.725 10.047L22.53 32.61h6.61l7.848-15.91-3.262-6.65v-.003z" fill="#089050"/><path d="M38.758 19.67l-3.18 6.49h9.415l3.222 6.45h6.61L38.68.04l-3.302 6.698 6.396 12.933H38.758z" fill="#8E2A8D"/><path d="M63.436 9.96h6.483v22.65h-6.485V9.96z" fill="#1D76BB"/><path d="M55.342.2h22.67v6.532h-22.67V.2z" fill="#FFCD0A"/><path d="M99.826 26.2v6.532c4.375-.417 8.302-2.558 10.946-5.786l-4.913-4.127c-1.54 1.73-3.646 3.01-6.035 3.38" fill="#BE202E"/><path d="M99.826.04v6.53a10.083 10.083 0 0 1 6.026 3.477l4.913-4.18A16.507 16.507 0 0 0 99.825.04" fill="#EF79AD"/><path d="M81.78 16.41c0 8.516 6.482 15.543 14.824 16.322v-6.53c-4.752-.786-8.383-4.88-8.383-9.793 0-4.96 3.64-9.055 8.385-9.84V.04C88.262.866 81.78 7.893 81.78 16.41" fill="#77787C"/><path d="M140.78.2h6.482v32.404h-6.483V.2z" fill="#D5148A"/><path d="M118.228.2h6.483v32.404h-6.48V.2h-.002z" fill="#D1DD28"/><path d="M127.893 13.228h9.704v6.45h-9.704v-6.45z" fill="#1D76BB"/><path d="M186.84 13.926l3.798 7.772 8.96-21.41h-7.06l-5.7 13.638h.002z" fill="#90298D"/><path d="M176.47 14.51l9.456 18.39 3.1-7.316L176.47.04l-6.772 13.477 3.262 7.765 3.51-6.772z" fill="#FFCD0A"/><path d="M153.966.2l12.96 32.7 4.094-7.974L160.738.2h-6.772z" fill="#019150"/><path d="M218.362 0c-8.543 0-15.53 6.49-16.355 14.8h6.53c.785-4.753 4.872-8.35 9.825-8.35 4.913 0 9 3.597 9.786 8.35h6.523C233.895 6.49 226.828 0 218.364 0" fill="#EB2227"/><path d="M218.362 26.33c-4.953 0-9.08-3.558-9.825-8.357h-6.53c.825 8.31 7.805 14.84 16.355 14.84 8.51 0 15.53-6.53 16.31-14.84h-6.524a9.875 9.875 0 0 1-9.786 8.356" fill="#00A4BF"/><path d="M253.84 22.9l3.878 9.704h6.98l-4.376-10.953a13.624 13.624 0 0 1-6.483 1.25" fill="#D5148A"/><path d="M264.45 10c0-5.416-4.296-9.71-9.705-9.71h-3.51v6.44h3.51c1.82 0 3.262 1.45 3.262 3.22a3.24 3.24 0 0 1-3.262 3.263h-3.51v6.45h3.51A9.65 9.65 0 0 0 264.45 10" fill="#CD8E2D"/><path d="M241.53.29h6.483v32.32h-6.483V.29z" fill="#144B93"/><g><path d="M286.644 7.114l4.25 6.45L299.98.214h-8.63l-4.706 6.9z" fill="#00A4BF"/><path d="M272.148.128h6.443v32.41h-6.44V.128h-.002z" fill="#BE202E"/><path d="M280.65 15.832l-.08.047h.08l10.947 16.656h8.262L284.703 9.84l-4.054 5.992z" fill="#019150"/></g></g></svg>
