<svg xmlns="http://www.w3.org/2000/svg" width="580" height="520" viewBox="-46 0 580 520"><title>Wreath2</title><path d="M216.65,29.62c-4.45-6.54-6.58-12.87-8.77-26.41C212.35,17.52,216,24,221.42,32.52A64.72,64.72,0,0,0,228,35.93c10.41,4.53,25,8.18,36.79,13.06-8.8-2.17-29.12-7.79-37.67-11.11q-1-.39-2-.84c-13.26,4.26-25.72,12.27-36.46,20.28,9.71-9.18,21.08-17.43,33.43-21.75a142.55,142.55,0,0,1-13.19-8.19c-14.21,1.39-22.81,3.18-36.1,7.68a5.7,5.7,0,0,0-.09-.79C184,29.68,195,26.86,207.43,26.43A50.52,50.52,0,0,0,201,22.6c-3.08-1.38-29.8-5.49-37.38-7.41,5.81.73,24.12,2.68,33.64,4.51-3.59-4.12-4.91-7.28-9.91-19.71a15.56,15.56,0,0,1,2.88,4.49c4.44,9,7.12,12.86,9.16,15.66a18.34,18.34,0,0,1,3,.88c3,1.33,8.55,5,14.22,8.59Z" transform="translate(-45.44 0)" fill="#3d5c47" fill-rule="evenodd"/><path d="M192.51,16.36c.87,3.9,10.65,4.95,9-4.31-.29-1.61-10.44-2.21-9,4.31Z" transform="translate(-45.44 0)" fill="#486f56" fill-rule="evenodd"/><path d="M173.72,20.71c1.81.8,5.22,4.49,6.06-2,.71-5.47-7.59-4.89-6.06,2Z" transform="translate(-45.44 0)" fill="#486f56" fill-rule="evenodd"/><path d="M184.71,20.63c.77,3.46,6.56,5.43,5.58,1.05-1.33-5.95-6.07-3.22-5.58-1.05Z" transform="translate(-45.44 0)" fill="#486f56" fill-rule="evenodd"/><path d="M185.92,5.53c6.64,5.2,9-2.68,3.07-3.41-1.88-.23-4.27,2.47-3.07,3.41Z" transform="translate(-45.44 0)" fill="#486f56" fill-rule="evenodd"/><path d="M191.85,34.65c.83,6.67,10.55-4.29.79-2.11,0,0-.8,2-.79,2.11Z" transform="translate(-45.44 0)" fill="#486f56" fill-rule="evenodd"/><path d="M184,29.19c-2.78,3,9.75,7.79,5.93-2.42-.58-1.55-5.46.75-5.63,2.49l-.3-.08Z" transform="translate(-45.44 0)" fill="#486f56" fill-rule="evenodd"/><path d="M180.94,36.45c-.57,3.28,8.56,3.16,4.21-1.25-1-1.06-4.22,1.28-4.21,1.25Z" transform="translate(-45.44 0)" fill="#486f56" fill-rule="evenodd"/><path d="M180.71,13.84c1.52,3.55,9.21,1.89,5.26-2.6-.65-.74-6.7-.76-5.26,2.6Z" transform="translate(-45.44 0)" fill="#486f56" fill-rule="evenodd"/><path d="M161.14,15.63c.05,4.77,8.37,7.13,6.34-4.18-.15-.86-5.64-1.53-6.06,3.6,0,.24-.28.36-.28.58Z" transform="translate(-45.44 0)" fill="#486f56" fill-rule="evenodd"/><path d="M175.87,28.1c-.16,4.27,4.61-1.22,2.2-1.17-2,0-2.14-.39-2.2,1.17Z" transform="translate(-45.44 0)" fill="#486f56" fill-rule="evenodd"/><path d="M197.85,26.25c-2.32,4.58,5.62,6.54,4.67,2.31-.55-2.44-1.38-4.34-4.3-3.22a9,9,0,0,0-.38.91Z" transform="translate(-45.44 0)" fill="#486f56" fill-rule="evenodd"/><path d="M194.81,6.18c1,2.2,5.22.72,2.83-1.41-1.25-1.11-3.2.63-2.83,1.41Z" transform="translate(-45.44 0)" fill="#486f56" fill-rule="evenodd"/><path d="M169.67,10.68c.14,3.91,7.75,2.3,5-2.52-.36-.63-4-.68-4.22,1.54,0,.28-.75.85-.75,1Z" transform="translate(-45.44 0)" fill="#486f56" fill-rule="evenodd"/><path d="M171,36.72c7.88,3.54,5.36-8.22.16-3.27-1.07,1-.61,3.06-.16,3.27Z" transform="translate(-45.44 0)" fill="#486f56" fill-rule="evenodd"/><path d="M219.22,38c.87,3.9-7.52,9-10-.07-.42-1.57,8.51-6.45,10,.07Z" transform="translate(-45.44 0)" fill="#486f56" fill-rule="evenodd"/><path d="M201.82,47.09c-1.29,1.49-2.81,6.29-6.32.8-3-4.65,4.78-7.66,6.32-.8Z" transform="translate(-45.44 0)" fill="#486f56" fill-rule="evenodd"/><path d="M215.06,11.13c.77,3.46-3.62,7.71-4.6,3.33-1.33-5.95,4.12-5.5,4.6-3.33Z" transform="translate(-45.44 0)" fill="#486f56" fill-rule="evenodd"/><path d="M192.15,45.25c-3.79,7.53-9.3,1.42-4.24-1.77,1.6-1,4.92.41,4.24,1.77Z" transform="translate(-45.44 0)" fill="#486f56" fill-rule="evenodd"/><path d="M221.74,20.35c2.09,6.39-11.37.62-1.61-1.57,0,0,1.58,1.47,1.61,1.57Z" transform="translate(-45.44 0)" fill="#486f56" fill-rule="evenodd"/><path d="M214.37,19.28c3.79,1.51-5.5,11.21-6.4.34-.14-1.65,5.26-1.64,6.16-.15l.24-.2Z" transform="translate(-45.44 0)" fill="#486f56" fill-rule="evenodd"/><path d="M226.39,41.48c1.92,2.72-6.4,6.51-4.35.66.49-1.4,4.36-.64,4.35-.66Z" transform="translate(-45.44 0)" fill="#486f56" fill-rule="evenodd"/><path d="M194.26,55.45c.14,3.85-7.52,5.64-5.87-.11.27-.95,5.74-3.54,5.87.11Z" transform="translate(-45.44 0)" fill="#486f56" fill-rule="evenodd"/><path d="M207.46,37.25c2,4.34-4.53,10-7.52-1.08-.23-.85,4.45-3.79,7,.67.12.21.41.21.5.41Z" transform="translate(-45.44 0)" fill="#486f56" fill-rule="evenodd"/><path d="M207.61,13.83c2,3.79-4.69.86-2.49-.12,1.85-.83,1.77-1.27,2.49.12Z" transform="translate(-45.44 0)" fill="#486f56" fill-rule="evenodd"/><path d="M225.82,25.27c4,3.15-2.3,8.31-3.24,4.08-.55-2.44-.6-4.52,2.51-4.75a8.79,8.79,0,0,1,.73.67Z" transform="translate(-45.44 0)" fill="#486f56" fill-rule="evenodd"/><path d="M220.41,49.62c0,2.43-4.41,2.88-3.16-.07.65-1.54,3.16-.8,3.16.07Z" transform="translate(-45.44 0)" fill="#486f56" fill-rule="evenodd"/><path d="M211,5.26c1.53,3.6-6,5.39-5.57-.16.06-.73,3.3-2.3,4.47-.41.15.24,1,.45,1.09.57Z" transform="translate(-45.44 0)" fill="#486f56" fill-rule="evenodd"/><path d="M214,49.07c-5.62,6.56-8.36-5.15-1.54-2.89,1.41.47,1.86,2.51,1.54,2.89Z" transform="translate(-45.44 0)" fill="#486f56" fill-rule="evenodd"/><path d="M205.82,51.43c2,3.79-4.69.86-2.49-.12,1.85-.83,1.77-1.27,2.49.12Z" transform="translate(-45.44 0)" fill="#486f56" fill-rule="evenodd"/><path d="M309.26,74c2.59.22-2.85,1.66-3.86,3.09-.19.28-11.43,4.82-12.05,6.51-3.22,0-10.83,10.55-10.83,16.74a76.78,76.78,0,0,0,2,19.14c1.44,7.09-.86,8.09,3.84-1.14,2.21-4.35,4-17.51,10.47-21.61,2.43-1.55,15.86-12.57,16.09-15.71.32-4.41,2.51-6.32-5.64-7Z" transform="translate(-45.44 0)" fill="#7a9161" fill-rule="evenodd"/><path d="M337.34,54.74c1.75,1.19,1.31-4.95,1.88-6.83,2.49-8.22-5.25-22.13-12.38-27a59.23,59.23,0,0,0-21.7-9.06C297.46,10.3,291,5,285.11.4c-2.45-1.94,9.42,30.69,11.8,36.09,3.84,8.73,11.41,12.29,19.53,15.44,2.6,1,18.37,5.29,20.16,3.35l.74-.55Z" transform="translate(-45.44 0)" fill="#5c794a" fill-rule="evenodd"/><path d="M263.63,79.11c3.21,10.34,4.08,18.05-.47,28.58-5.33,12.35-24,18-36.64,22.69-6.19,2.29-16.86,7.54-20,12.78-.06.11-.6-24.13-.6-30.77,0-8.18,7.65-23.25,15.75-27.63,3.8-2.05,6.77-6.09,13.64-8.15,4.15-1.25,26.93-7,26.93,1.38l1.34,1.13Z" transform="translate(-45.44 0)" fill="#8ca38b" fill-rule="evenodd"/><path d="M268.68,51.87c4.17-5.87,4-27.95-.73-34.34-9-12.16-11.31-13.12-27.67-14.81-5.68-.59-13.91-2.15-5,2.69,11.2,6.07,5.09,27.36,10.73,37.5,2.05,3.7,2.93,12.16,10.53,12.65,4.69.3,10.06,3.48,11.39-3,.06-.31.62-.45.75-.65Z" transform="translate(-45.44 0)" fill="#90a880" fill-rule="evenodd"/><path d="M316.76,75.08c2.28,3.43,3.54,2.66,5.17,7.24,4.67,13.14-6.78,19.93-7.49,23-.31.07-5.62-12-5.62-16.69,0-6.32.43-10.43,6.14-14.1,0,0,1.25-.29,1.79.53Z" transform="translate(-45.44 0)" fill="#90a880" fill-rule="evenodd"/><path d="M303.65,69.62c-.62-8.95,2.5-12.8-3.63-22.82-1.4-2.29-3-5.64-5.35-6.94,0-.79-11.74-7-14.65-10.5-.62-.74-2.15-2.52-2.2-3.42-.48-.19-1.48-2.86-1.6-3.34-.56,12.87-6,22.56,1.22,35,3.85,6.6,26.64,18.33,26.21,12Z" transform="translate(-45.44 0)" fill="#6c906c" fill-rule="evenodd"/><path d="M283.78,68.67c-27.46.64-59.73,46-72.48,60.95,21.76-17.38,45.73-58.46,77.33-59.46C303.44,74,331,76.63,339,78.14c9.27,1.75,25.2,9,39.88,14.52,0-.46.08-1.62.1-2.07-.27-.25-.52-.52-.77-.8-5.11-2.16-10.6-4.42-15.84-6.52-6.28-9.54-14.17-18.75-24.54-29.11C327,43.35,318.57,37.59,310.45,23.32c2.4,11.83,18.33,25.4,25.47,33.08a263.42,263.42,0,0,1,20.85,24.66c-7.74-3-14.34-5.37-17.45-6-9-1.93-51.55-6.5-57.36-10.62-16.88-12-23.21-31.23-28.47-50,.6,18.29,12.22,41.67,26.76,52.54a14.57,14.57,0,0,0,3.53,1.76Z" transform="translate(-45.44 0)" fill="#3d5c47" fill-rule="evenodd"/><path d="M453.37,133C412.56,122.78,442,35.56,443.7,37.27c14.49,14.5,21.73,27,21.73,48.58,0,18.44,1.38,32-10.47,47.3-.52.67.53.39-1.59-.14Z" transform="translate(-45.44 0)" fill="#8ca38b" fill-rule="evenodd"/><path d="M437.18,136.05c-.32-3.29-16.07-3.94-21.53-8.47-8.5-7-11.34-3.61-23.13-17.57-6.78-8-22.29-17.39-32.73-19.1-12.14-2,18.32-5.5,20.56-5.5,18.86,0,40.73,10.22,50,26.58,2.21,3.89,11.14,19.46,6.83,24Z" transform="translate(-45.44 0)" fill="#3d5c47" fill-rule="evenodd"/><path d="M397.89,123.17c-.13-5.57-17.66-11.21-23.69-11.57s-20.86,1.48-25,4.63c-2.32,1.77-8.58,3.22-13,8-7.31,8-14.12,16.7-22.43,22.94-3.27,2.46,4.25.75,5.53-.34,4-3.36,37.81-5.84,45.61-6.57,5-.48,21.18-3.72,25.11-6.3,3-2,6.71-7,7.47-10.64.2,0,.35,0,.35-.16Z" transform="translate(-45.44 0)" fill="#8fab7c" fill-rule="evenodd"/><path d="M439.19,145.52c-1-5.13-4.36-4.67-8.29-7.39-6.35-4.4-33.69-7-40.58-3.17-3.59,2-6.13,2.89-8.79,6.37-1.05,1.39-27.61,19.78-30.48,20-1.05.09-7.43,2.6,1,1.56,19.08-2.35,29.68,11.2,50.79,8.41,12.84-1.7,16.78-10.29,26.9-14.87,2.75-1.24,10.17-7.4,9.48-10.92Z" transform="translate(-45.44 0)" fill="#90a880" fill-rule="evenodd"/><path d="M472.45,209c-6.58-6.8-30.17-21.94-40.08-16.59-5.8,3.13-12.63,3.84-19.21,4.47-3.05.29-9.66-.6-9.6-.58,1.12.23,11.46,18.77,20.37,21,6.23,1.54,13.79,6.32,21.94,3.25,3.94-1.49,16.28-3.67,19.48-7,1-1.09,9.26-2.24,7.09-4.49Z" transform="translate(-45.44 0)" fill="#8ca38b" fill-rule="evenodd"/><path d="M444.95,61.81c8.09,37,11.29,63.35,9.77,96.66,23.94,51.1,26.69,67.52,28,128,.1,4.6.83,19.8-2.49,24.79,3.85-6.47.7-31.06.06-37.1-3.52-32.92-4.47-48.67-8.76-64.92-22.85,6.59-27.44,1.9-49.07-5.73,21.22,1.63,23.71,6,49,5.49-3.85-14.49-10.37-29.45-23.73-57.4a57.9,57.9,0,0,0-3.4-6.08c-19.53-2.81-44.26-.25-54.68,11,9-15.2,32.32-19.15,51.83-15.21a117.77,117.77,0,0,0-12.27-14c-27.06-1.67-50.18.07-77,8.27,28.13-13,41.18-13.92,74-11.23C410,109.21,389.07,95.9,373.3,91.09c27.29,6.84,65.41,33.73,77.67,59.45l.3.63c-1.72-29.82-4-58.95-6.32-89.36Z" transform="translate(-45.44 0)" fill="#3d5c47" fill-rule="evenodd"/><path d="M146.28,156.85c-1.23-3.43,7.85-12.9,11.17-13.79,3.81-1,12.62-7.37,19.54-6.71,6.34.6,14.73-.53,20.53,4.19,4.43,3.61,5,2.06,9.51,8,3.14,4.09,10.26,9.45,12.63,15.12,1.74,4.18,6.66,10.26-1.27,1.17C206.32,151,191.56,182.2,167,168.86c-3.73-2-13.3-5.22-16.22-8-1.66-1.56-3.61-1.59-4.49-4Z" transform="translate(-45.44 0)" fill="#6e8f64" fill-rule="evenodd"/><path d="M45.44,117.17c3.58-2.17,26.1-1.35,31-.55,3.73.6,9.52,1.1,12.61,2.9,11.1,6.46,16.69,18.67,19.48,31.18,1.51,6.77,1.2,11.74,0,18.2-.6,3.27-.92,2.51-6.13,2.35-11.43-.35-29.68-8.67-34.24-19.48-3.37-8-5.6-9.54-7.88-19.32C57.84,121.66,47.86,119.3,46.08,117l-.64.12Z" transform="translate(-45.44 0)" fill="#5c794a" fill-rule="evenodd"/><path d="M77,72.6c.31.13,5.08-1.16,8-.09,3.12,1.12,5.29.68,10.1,2.87a27.47,27.47,0,0,1,10.14,8.72c2.61,3.65,4.76,10.9,3.33,15.28-.81,2.5-.48,6.19-3.48,5-6-2.41-8.64-1-14.39-7.43-4.31-4.86-5.14-11.36-7-17-.81-2.45.1-1.75-1.87-3.65-.59-.57-3.92-2.51-4-2.73-.33,0-.56-.84-.81-1Z" transform="translate(-45.44 0)" fill="#6c906c" fill-rule="evenodd"/><path d="M121.33,170c9.08-7.61,18.2-11.73,38.05-17-20.66,8.82-29.71,15.16-41.66,24.59a97.22,97.22,0,0,0-4.11,10.25c-5.19,16.2-8.45,38.53-14,56.8,1.91-13.45,7.25-44.58,10.93-57.82q.43-1.55.95-3.11c-8.33-19.12-22.15-36.51-35.69-51.32C91,145.51,105,161.22,113.27,179a213.94,213.94,0,0,1,10.22-20.89c-5.12-25.57-9.87-38.61-23.3-66.33,12.7,21,21.33,40.57,24.51,64.07a76.27,76.27,0,0,0,4.75-10.16c1.6-4.8,3.72-45.24,5.44-56.83-.22,8.78-.38,36.35-1.68,50.83,5.6-6,10.12-8.42,27.89-17.73a23.24,23.24,0,0,1-6.26,5c-12.74,8-18.11,12.54-22,16a27.74,27.74,0,0,1-.86,4.65c-1.53,4.71-6.24,13.5-10.67,22.48Z" transform="translate(-45.44 0)" fill="#3d5c47" fill-rule="evenodd"/><path d="M153.39,126c1.76-6.41,4.16-14.31,10.67-17.61,7-3.54,10-3,17.06-4.4,2.67-.54,9.23-2.76,9.95-5.61.61-2.37.88,6.87.45,9.5-1.22,7.42-2.21,8-7.38,13.6-2.26,2.43-12.38,6.17-15.8,6.32-1.88.08-10.35,2.67-13.13,2.16-2.13-.39-3.76.7-2.44-3.41.27-.83.68-.8.61-.55Z" transform="translate(-45.44 0)" fill="#8ca38b" fill-rule="evenodd"/><path d="M160.05,47c-3.29,3.62,1.75,18.73,2.24,24.72.6,7.44.29,7.34.06,14.43-.28,8.73-5.3,19.75-10.6,26.66-1.39,1.81-2.8,6.25-6.45,10.39-1.33,1.51-9.93,12.4-11.83,9.11-6.63-11.54-10.51-19.5-13.2-32.89-1.11-5.55-.57-16.6,2.83-21.26,4.21-5.78,4.91-8.5,11.73-13.48a140,140,0,0,1,17.65-11.62c1.72-1,5.58-5.22,7.79-5.53l-.22-.55Z" transform="translate(-45.44 0)" fill="#6e8d5b" fill-rule="evenodd"/><path d="M161.29,405.63c-.91-8.27-30.94-9.8-37.31-8.88-2.1.31-13.66-.31-13.26.11,2.78,2.9,21.44,11.95,22.06,12.53s12.28,5.2,14.78,4.17c1.9-.78,13.08-5.79,13.84-7,.12-.19-.1-.85-.11-.95Z" transform="translate(-45.44 0)" fill="#5c794a" fill-rule="evenodd"/><path d="M165.52,353.92c1.05,6.55,1.2,5.7,3.61,11.92,1.12,2.89,4.36,7.57,4.32,11-.08,5.88.28,4.54-2.39,9.72-.37.72-4.74,6.43-5.34,5.64-5.18-6.92-5.14-6.24-7.87-14.65-1.42-4.39,2.5-17,5.3-20.13.66-.74,2.5-2.75,2.37-3.54Z" transform="translate(-45.44 0)" fill="#8ca38b" fill-rule="evenodd"/><path d="M136.1,381.12c-.88-5.93-1.27-4.17-2.65-8.5-2.31-7.23-.37-7.13,0-13.71.33-6.37-9.22-16.34-14.89-18.53-1.22-.47-7.16-4.4-9.46-4.4-2.82,0-14.56-6.91-24.65-5.82a18.79,18.79,0,0,1-3.78-.69c-.49.37-21.87-7-23.3-9.69.53.71,7.35,17.11,9.61,20.94,6.39,10.85,10.41,15.08,20.61,21.16,3.88,2.31,19.89,21.38,23.95,21.64.8.05,6.18,3.38,10.72,1.51,2.85-1.17,7.47-3,10.28-2.73,1.36.12,3.69-.62,3.6-1.19Z" transform="translate(-45.44 0)" fill="#6e8f64" fill-rule="evenodd"/><path d="M144.51,345.37c1.75-14.37,16.4-19.77,4.28-52.35,0,0-2.88-8.5-3.1-9.19-.59-1.83-.35-15.37-3.52-7.19-8.35,21.56-20.95,42.42-7.41,65.72.85,1.46,8.87,15.07,10.08,13.51.38-.49-.33-10.49-.33-10.49Z" transform="translate(-45.44 0)" fill="#6e8f64" fill-rule="evenodd"/><path d="M119.23,274.5c3.14-5.2,3.75-2.55,7.82-5.11,18.17-11.47,14.87-8,26.36-26.57,2.38-3.85,4.78-18.25,6-23.19.48-1.92,3.92-19.41-2.35-14.72-.58.43-9.45,15.72-12.85,18.06-3.59,2.47-13.13,11.47-16.51,14.77-6.91,6.76-9.12,13.57-10.14,22.67-.17,1.49.61,15.81,1.65,14.09Z" transform="translate(-45.44 0)" fill="#6c906c" fill-rule="evenodd"/><path d="M100.07,272.58c.4-19.05,32.54-51.45,12.23-77-2.83-3.56-5.84-15.13-7.86-16.7-1.42-1.1-4.55,6.68-5.06,7.44.47,1-8.55,22.47-9.6,24.72A41.45,41.45,0,0,0,86,227.45c-.23,7,.56,9,2,15.41,2.08,9,6.44,17.2,10.31,26.08.45,1,1.71,4.87,1.74,3.64Z" transform="translate(-45.44 0)" fill="#8ca38b" fill-rule="evenodd"/><path d="M93.76,304.3c-.42-1.67-.62-3.66-1.17-5.84-1.78-7.14-7.71-17.29-13.71-21.67s-6.95-4.75-13.75-7.14c-1.87-.66-10-5.78-11-5s6,9.34,6.69,10.8c1.22,2.53,3.79,5.65,4.7,8.7.85,2.86,4.89,10.34,6.86,13C75,300.69,79,304.39,83.12,306c1.9.73,5.17,1.84,7.12.79,1.42-.76,3.88-1,3.51-2.47Z" transform="translate(-45.44 0)" fill="#6e8f64" fill-rule="evenodd"/><path d="M102.69,315.23c-2,1.06-4,4.06-7.45,4.92-5.25,1.3-7.22.34-12.18-1.38-2-.69-10.5-5.85-11.43-7.82-.52-1.1,5.12-1.78,6.67-1.48,2.33.44,11.9-.2,15.07-.25a10.83,10.83,0,0,1,6.8,2.63c.16.17,3.44,2.9,2.54,3.38Z" transform="translate(-45.44 0)" fill="#8ca38b" fill-rule="evenodd"/><path d="M254.25,440.59s-14.24,13-43.71,16.65-54.26-2.68-61.89-7.95l-.24-.17h0a1.84,1.84,0,1,0-2.16,3l.31.21c8.09,5.58,34.08,12.32,64.44,8.57s46.23-18.14,46.23-18.14" transform="translate(-45.44 0)" fill="#79a163"/><path d="M219.56,459.9c-5.62,9.55-18,6.66-22,13.12-.73,1.18-3.49,3.85-3.62,6.18-.15,2.73-5.48,7.6-9,5.81s-3.83-4.55-4-8.09c-.26-6.18,9-13.25,15.1-13.16s17.43-8.44,20.09-6.8c.85.52,4.06,1.88,3.43,2.94Z" transform="translate(-45.44 0)" fill="#8ca38b" fill-rule="evenodd"/><path d="M188,462c-.33.26-11.44,4.37-14.14,5.85-11.14,6.12-10.82,3.35-22,4.16-3,.22-8.47-.54-10.11-3.52-1.93-3.5,3.36-11.24,10.78-10,3,.52,7.4,2.59,7.9,2.63.38.57,3.87,1.61,4.55,2.23.26-.08,4.94,2.11,8.06,1.48,2.18-.44,20.12-7,14.92-2.86Z" transform="translate(-45.44 0)" fill="#6e8f64" fill-rule="evenodd"/><path d="M176.37,457.82c-1.64-.48-10.86-6.28-12.34-7.56-4.33-3.74-8.61-6.07-11.93-11.29-1.58-2.49-2.82-3.75-3.14-6.9.52-.45-1.44-3.52,3.79-4.9,1.88-.5,12.35,9.06,13.62,11.58.23.46,5.51,8.06,6.5,9.56,2.59,3.94,3.17,6.21,6.94,9.46,1.15,1-1.77.52-3.44,0Z" transform="translate(-45.44 0)" fill="#6e8f64" fill-rule="evenodd"/><path d="M153.68,455.42c-7.53-3.24-7-1.25-14.13-1-7.92.26-10.41,1-17.22-4.35-1.66-1.3-5.67-.73-5.63-2.92.08-3.79,9.33-8.21,13.43-7.52,3.89.66,6.35-.4,11,1.74,1.44.66,3.9,1,5.33,2.23.88.77,7.47,3.79,8.82,5.37,1.07,1.25,13.82,9.37,5,7.3-2.05-.48-4.8-.07-6.54-.82Z" transform="translate(-45.44 0)" fill="#7a9161" fill-rule="evenodd"/><path d="M233.23,453.31c-1.58.31-8.4-.14-9.82.51-1.08.5-9.47,1.76-10.88,1.79-6.34.15-9.9-4.34-12.71-9.45-.76-1.39,3-3.19,4.85-3.08s4.47-.37,6.31.42,2.09.41,4.25,1.82c.49.32,8.77,4.12,9.7,4.43a44.19,44.19,0,0,0,6.88,1.53s3.32,1,2.24,1.46a1.14,1.14,0,0,1-.83.56Z" transform="translate(-45.44 0)" fill="#7f9d6c" fill-rule="evenodd"/><path d="M104.25,181.35c-.47,12.27-2.25,22.6-2.09,35.18.31,23.81-4.81,50,1.6,73.26,1.39,5,2.7,9.82,4,14.44A127.7,127.7,0,0,1,111,289.48c8-27.84,13.81-27.67,29.37-47.86,9.37-12.17,12.39-29.38,20.25-36.49-9.83,12.28-7.14,23.78-25,44.87-18.19,21.45-23.65,39.18-26.29,59.74,7.41,25.58,15.23,46.19,34.58,70.76q1.32,1.68,2.69,3.3c-.93-20.39-5.71-37.66-5.61-63.2,2.86,25.66,8,45.34,8.28,66.29a158.9,158.9,0,0,0,15.78,15.32c0-9.37-.32-19.07-1.1-29.39,1.37,6.32,2.32,17.64,2.74,30.76,16.14,13.39,34.7,24.16,53.45,34.2-.42.3-1.91,1.25-2.29,1.61l-3.85-2a251.4,251.4,0,0,1-47.93-31.25c-6.48,1-12.68,2.63-28.42-2.63,19.52,3.87,18.55,2.71,27.12,1.53a190.68,190.68,0,0,1-16.08-15.46c-9.37-5.24-18.37-12.45-28-23.23-22.19-24.92-27.53-24.61-54.43-32.17,7.2,1,13.21,1.64,19.93,4.41,13-.72,39.24,31.22,49.54,39.32,2.4,1.89,4.81,3.61,7.24,5.2a174.69,174.69,0,0,1-32.85-60.29c-2.58-2.14-5.56-4.88-8.74-8-6.37,1.31-13.21.9-21.55-2.06,8.47,1.61,14.62,1.7,20,.54C85.46,299,67.37,278,61.15,269.49c8.64,9.4,33,36.06,47.57,48.75-8.8-28.6-11.36-44.85-9-76,1.72-22.39,1.57-37.88,4.5-60.91Z" transform="translate(-45.44 0)" fill="#3d5c47" fill-rule="evenodd"/><path d="M524.32,283.46c5.53-2.5,7-1.62,13.75-5.5,2.58-1.48,8.22-9,8.82-12.32.28-1.55,2-6.25,1.64-8.06,0,0,.39-4.15-1-3-1.54,1.35-3.86.25-6.89,1-12.44,3.07-18.85,5.34-24.77,17.91-1.56,3.32,0,9.38,4.16,10.72,2,.67,3.31.14,5.27-1l-1,.2Z" transform="translate(-45.44 0)" fill="#7f9d6c" fill-rule="evenodd"/><path d="M576.71,326.39c-6.72-.88-28.18-16.36-35.29-20.81s-10.34-7-19-6.18c-10.22.92-23.15,8.05-29.83,16.07C491.3,317,482,333.55,482,333.62c1-.57,13.38,4.48,15.38,5.45,9.62,4.65,20.69,2.93,29.7-2.76,5.65-3.57,12.79-4.46,18.95-5.4,8.46-1.29,28.31,1.31,31.62-3.63.09-.14.11-.76-.95-.89Z" transform="translate(-45.44 0)" fill="#6e8f64" fill-rule="evenodd"/><path d="M464.93,298.94c-1.5.28-2.29-18.84-3.39-21.53-2.49-6.09-2.44-9.22-7.67-14.52-2.79-2.82-2.31-3.4-6.23-5.87-5.3-3.34-6.53-4.86-13.19-6-4.56-.8-8.12-2.16-13.1-1.51-5.62.73-10.05.57-15.76,3.19a51.94,51.94,0,0,1-10.24,3.14c-4.13.53-5.66,3.51-.56,2.73,4-.62,10.73-.14,14.45,1.93,5.4,3,10.61,12.83,12.34,18.77s7.78,13.55,13.67,15.36c2.74.84,2.4,1.4,6.45,2.12,2.27.41,6,2.21,9.21,1.95.51,0,6.44,1.28,8.1,1.24a33.07,33.07,0,0,0,5.92-1Z" transform="translate(-45.44 0)" fill="#8ca38b" fill-rule="evenodd"/><path d="M478.83,264.88c1.35-.76,4-10.4,3.52-12.79-.43-1.91.3-4.23-1.44-7.26a53.67,53.67,0,0,0-10.26-13c-4-3.78-2.69-9.79-4.21-9.59a1.61,1.61,0,0,0-1.07,1.44c-.16.15-6.63,17-6.62,18.71.08,7.46,3.82,15.93,9.78,20.43,1.54,1.17,8.53,5.41,9.91,2.35,0-.11.31-.2.4-.25Z" transform="translate(-45.44 0)" fill="#6c906c" fill-rule="evenodd"/><path d="M490.68,287.12c2.18.61,10.13-3,12.92-3.54,6.3-1.14,13.63-6.54,18.07-10.86,1.34-1.3,5.18-5.85,5.89-7.5.89-2.07,4.07-6.54,4.87-9.11,1.09-3.49,2.86-5.64,2.91-9.8,0-2.33.75-8.41-.14-10.66-.21-.53-.15-4.94-1.1-6.71-.11-.21-3-9.36-4-11.49-.78-1.66-3.2-11.93-4-11.5s-3,4.32-7.18,5.59c-2.59.79-15.6,11.44-18.67,14-5.47,4.47-12.21,13.32-12.63,20.57-.12,2.15-1,4.25-.93,7.73.12,5.41.47,9.7.28,15.32-.15,4.51-.93,15.7,3.41,18.11l.21-.09Z" transform="translate(-45.44 0)" fill="#3d5c47" fill-rule="evenodd"/><path d="M579.78,278.7c-1.53-2.11-9.82-7.46-12.53-8.33-2.34-.75-11.68-3.51-13.57-2.9-2.07.66-5.7-.4-9.47,3-1.33,1.21-4.79,4.53-5.54,5.94-.59,1.1-5.4,6.39-4.29,7.25,2.61,2,9.58,4.42,12.87,3.51,1.57-.43,2.74.05,5.14-1.08,3.3-1.56,4.8-1.38,8.33-4,4.17-3.12,7.12-4.51,12.08-3.16.75.2,8.14,3.06,7.11-.06l-.12-.19Z" transform="translate(-45.44 0)" fill="#8fab7c" fill-rule="evenodd"/><path d="M529.81,294.66c1.08,0,4.94-3.79,10-4.55a26.74,26.74,0,0,1,5.22-.7c4.78-.14,11.91,3.8,15.47,6.65,2.65,2.13,6.47,3,.93,6.43-3.64,2.23-24.73,4.7-27.67,1.88-1.51-1.44-4.56-1.06-5.52-6.1.24-.22.31-2.19,1.29-3.12l.32-.49Z" transform="translate(-45.44 0)" fill="#7f9d6c" fill-rule="evenodd"/><path d="M564.76,325.33c-27.2-3.88-65.55-.26-94.74,10.19,2.89-5.7,5-15.13,7.92-23.91,12-5.86,23.57-11.56,35.37-17.18,10.11,2.07,15.3,1.88,33.48,2.17-8.18-.79-19.74-2.35-30.73-3.47C528.92,287,542.11,281,556.45,275c-11.83,3.1-25.87,8.8-40.4,15.5,7.54-8.66,15.72-17,18.23-20.56-4.41,4.59-13.3,13.31-22.21,22.42-11.13,5.24-22.46,11-33.22,16.54a61.49,61.49,0,0,1,4-9.18c4.19-7.58,36.25-39.77,33.39-46.44-6.89,17.29-20.78,22.66-31.55,37.81,3.34-13.49-5.65-23.71-14.1-43.67,1.42,8.46.57,5,3.66,13.07,7.32,19,11,18.5,5.27,39.3a81.68,81.68,0,0,0-6.5,19.45c-.47,2.22-1.06,5.12-1.75,8.13,2.71-23.69-9.07-32.74-25-48.51,13.3,18.24,27.68,25.5,20.88,54.1-1,4.09-11.73,24.13-23.17,44.93a4.2,4.2,0,0,1,1.49,2.69c9.29-15.91,18.21-31.87,22.42-41.05,29.63-8.83,34.37-11.61,96.85-14.21Z" transform="translate(-45.44 0)" fill="#3d5c47" fill-rule="evenodd"/><path d="M256.05,459.28c-1.47-1.33-20.18,9.82-23.21,14.76-9.07,14.81-4.55,6.47-8.47,22.16-2,8.07,1.75,9.94-4.4,21.45-3.55,6.65,14.68-2.84,15.6-3.33,5.28-2.83,17.8-2.41,22.95-12.87,3-6,8.06-9.92,7.8-19.51-.24-8.7,1.13-20.2-10.27-22.65Z" transform="translate(-45.44 0)" fill="#5c794a" fill-rule="evenodd"/><path d="M298.76,456.43c-3.75-5-19.1,6.49-21,10.7-2.15,4.65-5,8.69-5.15,13.92-.11,3.56-2.29,11.14-.08,15.26.54,1,3.12,9.42,4.65,12.6,5.2,10.77,3.17-5.77,6.47-8.12,2-1.43,8.66-9.86,9.12-12.51.68-3.94,5.1-13.67,8.29-16.51,2.54-2.25,5.47-7.71,3.45-11.47-2.5-4.65-5.24-3.24-5.71-3.86Z" transform="translate(-45.44 0)" fill="#6e8d5b" fill-rule="evenodd"/><polygon points="162.92 440.17 162.92 440.16 162.91 440.16 162.92 440.17" fill="#3d5c47" fill-rule="evenodd"/><path d="M253.78,437.19c-5-10.28-3.33-12.85-14.27-20.67-9-6.41-16.75-11.68-27.85-13a66.17,66.17,0,0,0-10.1-.79c-12-.1-17.72-2.3-28.24,5.7-.8.61-.33,1.35.71,2.15-.09-.07-.25-.15-.33-.22.12.35.45.75.68,1.33.95,2.43,13.86,14.6,13.9,14.69,1.12,2.11,6.24,5.47,8,7.31,2.25,2.29,11.09,6,12,6.45-.32-.18-.62-.47-.93-.69,6.38,4.6,14.39.61,22.81-.09,10.59-.87,12.86,5.71,22.15,1.23,1.08-.52,1.35-1.87,1.87-2.51ZM179.3,413.61q1.27.66,2.45,1.33C181,414.49,180.15,414,179.3,413.61Zm-3.5-1.88.66.38Zm6.69,3.65a13,13,0,0,1,2.16,1.54A13,13,0,0,0,182.48,415.37Zm21.71,20.92a14.53,14.53,0,0,0,2.41,2.58A14.5,14.5,0,0,1,204.2,436.29Z" transform="translate(-45.44 0)" fill="#3d5c47" fill-rule="evenodd"/><path d="M299,361.15c-4.58-1.45-11.18,3-15.33,7.38.11-.11.18-.22.29-.34-3.12,1.67-7.73,6.66-8.22,7.07-4.34,3.65-10.92,7.49-14,11.59-6.52,8.59-6.73,11.74-6.54,22.09.11,5.52,3.68,10.78,6.73,15.09a13.3,13.3,0,0,1-.85-1.63,13.72,13.72,0,0,0,2.6,3.89c5.76,5.76,9,19.92,18.78,19.41,3.34-.17,6.44-2.11,6.7-7.93.28-6.45.43-11.51,1.72-18,1.34-6.69.17-9.42.68-14.46.77-7.51,3.06-10.08,5.08-17.32.51-1.84.83-18.67.35-20.12A63.52,63.52,0,0,0,299,361.15Zm-38.2,56.74a3.23,3.23,0,0,0-.39,1.86A3.22,3.22,0,0,1,260.84,417.9Zm-.34,2.41a7.84,7.84,0,0,0,.5,1.85A7.76,7.76,0,0,1,260.51,420.31Zm21.77-50.13c-.2.24-.43.5-.61.74C281.85,370.68,282.08,370.43,282.28,370.18Z" transform="translate(-45.44 0)" fill="#6e8f64" fill-rule="evenodd"/><path d="M272.47,447.54c4.82.56,8.14.55,12,1-6.38-8.27-9.29-17.91-9.59-35.6-.32-19.16,3.94-22.52,14.19-35,.31-.38,1-1.5,1.24-1.74.37.33-1,2.38-1.14,2.58-9.12,12-12.68,17.13-11.88,34,.9,19,3.74,27.81,10.19,36.15,33.94,4.2,35,3.92,79.8-15.07l1.85-.79a14.63,14.63,0,0,0,1.7,3l-2.37,1c-35,15.26-43.85,18.39-62.41,16.79-12.19,8.46-20,16.63-28,39.17,4.68-20.54,12.71-30.7,24.28-39.54-7.09-.77-15.71-2.08-27.45-3.6q-4.07,2.11-8.1,4.24c-22.63,12-20.07,40.81-35.58,50.79,15-14.32,11.43-40.48,34.44-53.14l3.88-2.11-7.94-4.07c-19.52-8.75-39.34-15.49-60-27.4-8.49-4.89-12.67-4.67-13.59-5.13a.62.62,0,0,1-.32-.52c.15.08.28.22.38.25,1.24.45,3.36-1.48,14.25,4.1" transform="translate(-45.44 0)" fill="#3d5c47" fill-rule="evenodd"/><path d="M419.64,404.49c1.88-1.79-3.26.49-4.94,0-.33-.09-11.93,3.4-13.47,2.47-2.52,2-15.05-1.44-18.93-6.28a76.74,76.74,0,0,1-10.43-16.16c-3.31-6.44-5.73-5.77,3.71-1.51,4.45,2,14.11,11.12,21.69,10.3,2.86-.31,20.24-.13,22.38,2.18,3,3.24,5.91,3.36,0,9Z" transform="translate(-45.44 0)" fill="#6e8d5b" fill-rule="evenodd"/><path d="M453.6,402c.62-2,4.11,3,5.74,4.15,7.08,4.86,9.76,20.54,7.26,28.82a59.23,59.23,0,0,1-11.25,20.64c-5,6-6.81,14.17-8.47,21.46-.7,3-11.86-29.83-13.39-35.54-2.46-9.21,1.21-16.73,5.57-24.27,1.4-2.41,11-15.63,13.62-15.23l.92,0Z" transform="translate(-45.44 0)" fill="#5c794a" fill-rule="evenodd"/><path d="M380.86,429.07c-4-10.07-8.12-16.63-18.25-22-11.89-6.3-30,1-42.77,5.23-6.26,2.08-17.87,4.67-23.56,2.53-.12,0,14.63,19.19,18.79,24.37,5.12,6.38,20.52,13.34,29.57,11.69,4.25-.78,9.09.52,15.74-2.17,4-1.63,25.42-11.36,20.14-17.93l.33-1.72Z" transform="translate(-45.44 0)" fill="#8ca38b" fill-rule="evenodd"/><path d="M401.85,447.16c6.92,2,20.63,19.28,20.92,27.25.56,15.13-.61,17.31-12.32,28.86-4.06,4-9.5,10.38-5.58,1,4.93-11.74-13.15-24.52-15.11-36-.71-4.17-5.32-11.32.3-16.46,3.47-3.17,5.67-9,10.79-4.76.24.2.76,0,1,0Z" transform="translate(-45.44 0)" fill="#8ca38b" fill-rule="evenodd"/><path d="M424.83,399c-.37-4.11,1.09-4.29-.51-8.89-4.58-13.17-17.76-11.3-20.24-13.26-.28.15,3.15,12.91,6.06,16.53,4,4.93,6.86,7.86,13.61,7.15,0,0,1.16-.56,1.07-1.53Z" transform="translate(-45.44 0)" fill="#8ca38b" fill-rule="evenodd"/><path d="M418,411.43c5.12,7.37,10,8.42,11.45,20.07.34,2.66,1.18,6.28.17,8.76.47.63-4.75,12.84-4.86,17.35,0,1-.1,3.31.43,4-.26.45.64,3.16.84,3.6-8.5-9.68-18.84-13.81-21-28.08-1.13-7.55,9.31-31,12.94-25.75Z" transform="translate(-45.44 0)" fill="#8ca38b" fill-rule="evenodd"/><path d="M403.11,424.6c-21.82,16.69-75.38,1.5-94.67-2.18,27.85-.06,72.26,17,97.53-2,9.14-12.26,29-31.57,34.29-37.75,6.14-7.17,14-22.76,22-36.28.25.38,1.07,1.21,1.37,1.55,0,.36-.08.73-.1,1.1-2.64,4.88-5.5,10.08-8.28,15,1.08,11.37.69,23.49-.92,38.06-1.68,15.2-4.66,25-2.07,41.2-5.53-10.73-1.6-31.28-.83-41.74a264.13,264.13,0,0,0,.83-32.28c-4.16,7.19-7.82,13.16-9.83,15.63-5.81,7.14-36.14,37.33-38.09,44.18-5.66,19.91,1.44,38.88,9.1,56.84-11-14.64-16.54-40.15-12-57.73a14.61,14.61,0,0,1,1.66-3.58Z" transform="translate(-45.44 0)" fill="#3d5c47" fill-rule="evenodd"/><path d="M468.53,344.33c-.24,1.15-3.33,8-1.24,9.73.66.53,2.58-4.58,1,1.3-1.64,6.08,1.93,11.45,6.34,14.87.44.34-.58-1.72.77-1.69,2.22,3,1.75,7.21,3.36,2.05.6-1.93,3.12,5.77,4.47,1.5.79-.27,2.93,4.31,3.25,2.89.54-2.39,1.85,0,5.83.45.66.07,10.46.41,6-1.11-3.08-1.05-2.78-17.83-4.19-20.63-1.57-3.13-.74-4.11-4.24-6.63-2.66-1.92-3.61-2.49-7.3-2.87.15,0,4.7-.67.4-1.11-2.62-.27-8.22-2-10.61.51,0,0-4.32,1.8-4.55,2l.7-1.22Z" transform="translate(-45.44 0)" fill="#7a9161" fill-rule="evenodd"/><path d="M465.9,371.59c-1.5,3.51-4.89,5.8-5.48,11.63-.14,1.38,3.83-3.42.92,1.1-1.29,2-1.07,5.52.83,6.72s5.41,4.24,4.92,6.92c.43.23,1.2-1.52,1.71-1.57,1-2.17,1.45,5.94,3.63,1.25.09-.19,3.57,3.49,4.48,4.28,4.93,4.26,1.84,2.61,3.36-3.92.27-1.19.81,2.89.72-1.49s0-3.73,1.47-3.27c.14,1.33.26-4.73.79-4.68,2.17.22-1.49-9.5-3-11.6-2.66-3.63-6.81-6.5-11.63-6.39-1,0-2.28.08-2.69,1Z" transform="translate(-45.44 0)" fill="#8fab7c" fill-rule="evenodd"/><path d="M465.79,350.15c-2,.58-8.58.16-10.23,2-.18,0,2.71.22,1.24.5-.64.12-5.25,3.15-5.56,3.93-.17.43-2.24,2.86-1.73,2.91,1,.1,1-.21-.41,1.73-2,2.73-2.63,12.4-1.39,9.71a20.11,20.11,0,0,1,3.77-1.2c.76-.08,2.29-1.14,2-.31-.49,1.56.74-.17,2-.36,1.83-.29,4.7-2.89,5.57-4.6.65-1.29,3.25-3.46,3.46-6s1.28-4.54,1.21-7.73c0,0,.06-.57.06-.57Z" transform="translate(-45.44 0)" fill="#8ca38b" fill-rule="evenodd"/><path d="M450.81,367c5.69-7.06,5.55-6.89,13.16-13.37l1.36-1.16c-1.11,5.87-1.76,11.07-1.57,14.42.46,8,8.94,24.67,13.79,31.15C473.74,392.19,465.4,373.65,465,367c-.25-4.16,1.08-12.16,3-20.71,4,9.41,6.65,11.73,18.2,18.53,1.2.7,8.13,5.31,8.12,7.58h0c.07-3.58-8.66-9.38-11.21-10.78-7.7-4.23-11.26-9.67-14.84-16.47l0,.09c2.62-11.65,6.2-24.07,8.18-29.1a1.4,1.4,0,0,1-.6-.32c-2.73,5.82-7.41,21.57-10.06,34.73-.76.66-1.57,1.36-2.43,2.1-8.49,7.24-7.19,6.15-12.47,14.4Z" transform="translate(-45.44 0)" fill="#709458" fill-rule="evenodd"/><path d="M234.92,260.16a17.49,17.49,0,0,1-6.12-1.05,15.57,15.57,0,0,1-5-2.94,14.36,14.36,0,0,1-3.39-4.44,13.13,13.13,0,0,1-1.33-5.56,17.13,17.13,0,0,1,1.23-7,19.32,19.32,0,0,1,3.43-5.46,21.22,21.22,0,0,1,4.86-4,32.49,32.49,0,0,1,5.6-2.69,16.24,16.24,0,0,1-2.9-2,15.35,15.35,0,0,1-2.41-2.66,14.17,14.17,0,0,1-1.68-3.08,8.78,8.78,0,0,1-.63-3.22,17.44,17.44,0,0,1,2-8.89,23.07,23.07,0,0,1,5.49-6.82,25.05,25.05,0,0,1,7.52-4.37,23.44,23.44,0,0,1,8.15-1.54,10.77,10.77,0,0,1,4.55.88,9.61,9.61,0,0,1,3.08,2.17,9.06,9.06,0,0,1,1.78,2.8,9,9,0,0,1,.67,2.76,15.63,15.63,0,0,1-.59,4.69,21.83,21.83,0,0,1-1.68,4.3,12.42,12.42,0,0,1-2.27,3.15,3.62,3.62,0,0,1-2.45,1.22,6.85,6.85,0,0,1-1.89-.28,12.69,12.69,0,0,1-2-.7,8.74,8.74,0,0,1-2.24-1.47,10,10,0,0,0,3.22-2,12.68,12.68,0,0,0,2.34-2.9,13.27,13.27,0,0,0,1.4-3.32,12.71,12.71,0,0,0,.46-3.25,5.72,5.72,0,0,0-1-3.46,3.8,3.8,0,0,0-3.15-1.23,13.31,13.31,0,0,0-5.88,1.44,16.82,16.82,0,0,0-5.21,4,18.73,18.73,0,0,0-3.57,6.09,17,17,0,0,0-.87,7.66,10.93,10.93,0,0,0,1.92,5.32,19.23,19.23,0,0,0,3,3.36l2.1-.25a17.19,17.19,0,0,1,1.82-.1,7.12,7.12,0,0,1,2.38.42q1.19.42,1.19,1.19a3.86,3.86,0,0,1-.25,1.26,4,4,0,0,1-.81,1.33,4.92,4.92,0,0,1-1.33,1,3.74,3.74,0,0,1-1.82.42,6.28,6.28,0,0,1-2-.42,17.56,17.56,0,0,1-2.38-1,13.85,13.85,0,0,0-4.83,2,15.06,15.06,0,0,0-3.67,3.39,15.88,15.88,0,0,0-2.34,4.27,11.93,11.93,0,0,0-.77,4.48,17.88,17.88,0,0,0,.63,4.09,10.93,10.93,0,0,0,1.75,3.67,9,9,0,0,0,3.11,2.62,9.87,9.87,0,0,0,4.65,1,9,9,0,0,0,3.88-.87,16.52,16.52,0,0,0,3.46-2.2A22,22,0,0,0,247,249a31.85,31.85,0,0,0,2.31-3.15q1-1.54,1.65-2.8t.94-1.82a1.42,1.42,0,0,1,.59-.63,1,1,0,0,1,.77-.1.94.94,0,0,1,.6.52,1.9,1.9,0,0,1,0,1.26,25.45,25.45,0,0,1-2.1,5.63,26.62,26.62,0,0,1-4,5.84,22.15,22.15,0,0,1-5.67,4.58A14.38,14.38,0,0,1,234.92,260.16Z" transform="translate(-45.44 0)" fill="#2c2924"/><path d="M291.41,243.92a20.7,20.7,0,0,1,.32-3.36q.31-1.89.8-3.88t1-3.88q.49-1.89.84-3.36a4.25,4.25,0,0,0-.07-2.8,1.73,1.73,0,0,0-1.68-1,5.94,5.94,0,0,0-2.21,1,14.25,14.25,0,0,0-3.57,3.4,31.11,31.11,0,0,0-3.78,6.51,42.34,42.34,0,0,0-2.9,10.39,8.73,8.73,0,0,1-2.52.91c-.42.09-.79.16-1.12.21q-1.4.07-1.82-.46t.14-2.55q.28-1,1-3.15t1.44-4.72q.7-2.55,1.22-5.11a22.49,22.49,0,0,0,.52-4.44,2.72,2.72,0,0,0-.45-1.82,1.69,1.69,0,0,0-1.29-.49,5.89,5.89,0,0,0-2.1.7,11.34,11.34,0,0,0-3.29,2.73,25.33,25.33,0,0,0-3.6,5.63,41.4,41.4,0,0,0-3,9.34v-.14l-.28,1.12a6.84,6.84,0,0,0-.21,1,7,7,0,0,1-.21,1l-3.5,1.54a3.75,3.75,0,0,1-.87.21,1.59,1.59,0,0,1-1-.17,1.53,1.53,0,0,1-.66-1,5.14,5.14,0,0,1,.14-2.31l4.41-18.27q.21-.91.35-1.75a11.64,11.64,0,0,0,.17-1.5,3.87,3.87,0,0,0-.1-1.22,16.36,16.36,0,0,1,2.1-.84q.91-.28,1.47-.42a4.25,4.25,0,0,1,1.19-.21q2.24,0,1.47,3.85-.28,1.12-.84,3.29a36.56,36.56,0,0,1,2.83-3.18,31.93,31.93,0,0,1,3-2.69,15.25,15.25,0,0,1,3.11-1.89,7.64,7.64,0,0,1,3.11-.7,2.94,2.94,0,0,1,2,.7,4.69,4.69,0,0,1,1.26,1.85,8.51,8.51,0,0,1,.52,2.73,19.37,19.37,0,0,1-.14,3.25q1.12-1.47,2.48-3a23.86,23.86,0,0,1,2.87-2.69,16.56,16.56,0,0,1,3.11-2,7.41,7.41,0,0,1,3.22-.77,3.73,3.73,0,0,1,2.91,1.12,6.16,6.16,0,0,1,1.4,2.87,12.57,12.57,0,0,1,.21,3.78,29.92,29.92,0,0,1-.59,3.92l-2.38,9.45q-.77,3.5,1.47,3.5a6.39,6.39,0,0,0,3.85-1.68,31.17,31.17,0,0,0,4.09-4q2-2.31,3.75-4.76t2.94-3.92a1.48,1.48,0,0,1,.88-.56,1,1,0,0,1,.77.17,1,1,0,0,1,.35.81,2.88,2.88,0,0,1-.38,1.4q-1.4,2.45-3.43,5.42a46.78,46.78,0,0,1-4.44,5.56,26.83,26.83,0,0,1-5.14,4.34,10.37,10.37,0,0,1-5.67,1.75,8.83,8.83,0,0,1-1.92-.21,4.89,4.89,0,0,1-1.75-.77,4.08,4.08,0,0,1-1.29-1.5A5.23,5.23,0,0,1,291.41,243.92Z" transform="translate(-45.44 0)" fill="#2c2924"/><path d="M316,220.82a2.69,2.69,0,0,1,1.33-.7,18.65,18.65,0,0,1,2-.46,15.94,15.94,0,0,1,1.92-.21,3.51,3.51,0,0,1,1,0,5.37,5.37,0,0,1-.35,1.47q-.42,1.4-1,3.29t-1.33,3.88q-.7,2-1.05,3.25t-.84,2.83q-.49,1.58-.87,3.08a19.81,19.81,0,0,0-.52,2.83,3.75,3.75,0,0,0,.21,2,2.74,2.74,0,0,0,.77,1.16,1.49,1.49,0,0,0,.91.31,6.61,6.61,0,0,0,3.54-1.54,39.36,39.36,0,0,0,4.34-3.67q2.21-2.13,4.09-4.34a44.24,44.24,0,0,0,2.8-3.53,2.69,2.69,0,0,1,1.16-.91,1,1,0,0,1,1,.07,1.13,1.13,0,0,1,.42.91,2.72,2.72,0,0,1-.46,1.47,37.11,37.11,0,0,1-3.29,4.65,69.14,69.14,0,0,1-4.62,5.18,42.46,42.46,0,0,1-4.79,4.23,7.75,7.75,0,0,1-3.82,1.82,5.48,5.48,0,0,1-2.34-.38,7.42,7.42,0,0,1-2.1-1.26,7.21,7.21,0,0,1-1.57-1.89,5.06,5.06,0,0,1-.7-2.27,27,27,0,0,1,0-4.79,59.44,59.44,0,0,1,.77-6.23,50.94,50.94,0,0,1,1.44-6.05A13,13,0,0,1,316,220.82Zm9.66-14.91a4.14,4.14,0,0,1-.8,1.5,5.32,5.32,0,0,1-1.33,1.19,4.3,4.3,0,0,1-1.5.59,1.44,1.44,0,0,1-1.26-.28,3.34,3.34,0,0,1-1.54-2.42,4.19,4.19,0,0,1,.63-2.45,7,7,0,0,1,1.75-2,4.55,4.55,0,0,1,1.82-.94,1.48,1.48,0,0,1,1.29.31,2.93,2.93,0,0,1,.8,1.19,5.19,5.19,0,0,1,.31,1.65A4.92,4.92,0,0,1,325.63,205.91Z" transform="translate(-45.44 0)" fill="#2c2924"/><path d="M328.85,246q3.08-12.95,4.93-20.79l2.83-12q1.12-4.9,1.54-6.79.21-1.33.35-2.59a18.71,18.71,0,0,0,.14-2.31,10.34,10.34,0,0,0-.21-2.17,5.32,5.32,0,0,1,1.22-.56c.44-.14.88-.26,1.29-.35s1-.26,1.54-.35a7.94,7.94,0,0,1,1.4-.14,5,5,0,0,1,1,.1.8.8,0,0,1,.63.46A1.71,1.71,0,0,1,346,200q0,1.05-.17,2.17-.28,1.33-.63,2.87-.84,3-2.31,8.68-1.26,4.83-3.4,13.16t-5.35,21a1.92,1.92,0,0,1-.84.49,3.35,3.35,0,0,1-.91.14,8.65,8.65,0,0,1-1.05-.07,4.48,4.48,0,0,1-1-.42,4.77,4.77,0,0,1-.84-.73A2.88,2.88,0,0,1,328.85,246Z" transform="translate(-45.44 0)" fill="#2c2924"/><path d="M364,221.38a8.75,8.75,0,0,1,1.79-1.08,7.85,7.85,0,0,1,1.57-.52,4.35,4.35,0,0,1,1.54-.14q1.89.14,2.34,1.19a6.58,6.58,0,0,1,.11,3.36,20.56,20.56,0,0,1-.84,3q-.63,1.82-1.47,4.44t-1.79,6q-.94,3.36-1.79,7.56-.84,3.43-1.82,7.91-.84,3.92-2,9.45t-2.48,12.67q-.35,1.75-1.5,2a3.7,3.7,0,0,1-2.42-.28,6.44,6.44,0,0,1-.91-.63q-.35-.35-.77-.8a3.58,3.58,0,0,1-.7-1.22q1.61-5.88,2.83-10.71t2.21-8.4q1-4.13,2-7.42.35-1.47.67-2.9t.67-2.83a29.84,29.84,0,0,1-2,2.8,13.47,13.47,0,0,1-2.31,2.31,10,10,0,0,1-2.69,1.5,6.12,6.12,0,0,1-3,.31q-3.78-.49-5.35-2.8a9.49,9.49,0,0,1-1.37-6,21.84,21.84,0,0,1,.42-3.22q.35-1.75.77-3.36t.81-2.9q.38-1.29.59-1.85a46.19,46.19,0,0,0,1.22-4.55,3.7,3.7,0,0,0-.59-3.15,6.94,6.94,0,0,1,1.85-.87q.87-.24,1.58-.38a8.63,8.63,0,0,1,1.54,0q1.89.28,2.2,1.4a7.07,7.07,0,0,1-.24,3.36q-.28,1.19-.91,3t-1.33,3.81q-.7,2-1.26,3.6a12.27,12.27,0,0,0-.63,2.34,10,10,0,0,0-.07,4.86,2.33,2.33,0,0,0,2.45,1.71,3.59,3.59,0,0,0,2-.8,13.57,13.57,0,0,0,2.28-2.13,27.89,27.89,0,0,0,2.27-3q1.12-1.71,2.06-3.46t1.68-3.43a21,21,0,0,0,1.08-3q.49-2.59.63-4.06A3.3,3.3,0,0,0,364,221.38Z" transform="translate(-45.44 0)" fill="#2c2924"/><path d="M230.14,343.34a12.19,12.19,0,0,1-6.33-1.68A15.15,15.15,0,0,1,219,337a21.82,21.82,0,0,1-3-6.89,30,30,0,0,1-.87-8.43,58.52,58.52,0,0,1,1.08-9.1,67.84,67.84,0,0,1,2.69-9.83,66.69,66.69,0,0,1,4.23-9.52,40,40,0,0,1,5.7-8.08,27.65,27.65,0,0,1,7.14-5.63,17.71,17.71,0,0,1,8.61-2.13,9.57,9.57,0,0,1,4.86,1.15,9.39,9.39,0,0,1,3.22,3,12.39,12.39,0,0,1,1.71,4.27,21,21,0,0,1,.42,4.83,25.67,25.67,0,0,1-.67,4.48,15.61,15.61,0,0,1-1.47,3.88,8.35,8.35,0,0,1-2.31,2.73,5.08,5.08,0,0,1-3.11,1,3.5,3.5,0,0,1-1.61-.56,6.24,6.24,0,0,1-1.43-1.26,8.38,8.38,0,0,1-1.37-2.45,5.94,5.94,0,0,0,3-2.69,17.25,17.25,0,0,0,1.64-4,28.86,28.86,0,0,0,.84-5.32,5.35,5.35,0,0,0-1.19-4.2,4.16,4.16,0,0,0-3-1.33q-3.29,0-6.93,3.43a35.71,35.71,0,0,0-6.75,9.27,66.27,66.27,0,0,0-5.25,13.61,73,73,0,0,0-2.48,16.45,24.7,24.7,0,0,0,.53,6.65,13.22,13.22,0,0,0,1.89,4.48,7.56,7.56,0,0,0,2.76,2.52,6.84,6.84,0,0,0,3.08.77,10.47,10.47,0,0,0,4.62-1,18.06,18.06,0,0,0,4-2.59,23.21,23.21,0,0,0,3.08-3.18,22.63,22.63,0,0,0,2-2.9,2.24,2.24,0,0,1,1-1.12,1,1,0,0,1,1,.11,1.58,1.58,0,0,1,.56,1,2.55,2.55,0,0,1-.28,1.58,35,35,0,0,1-2.9,4.76,27.24,27.24,0,0,1-3.85,4.3,19.16,19.16,0,0,1-4.65,3.12A12.31,12.31,0,0,1,230.14,343.34Z" transform="translate(-45.44 0)" fill="#2c2924"/><path d="M290.55,314.92a1.51,1.51,0,0,1,1-.59,1,1,0,0,1,.84.28,1.19,1.19,0,0,1,.28.95,2.72,2.72,0,0,1-.59,1.4,45.63,45.63,0,0,1-3.08,3.75q-1.75,1.93-3.74,3.74t-4,3.43a29.11,29.11,0,0,1-3.92,2.66,7.58,7.58,0,0,1-3.53,1.19,3.79,3.79,0,0,1-2.83-1.82,5.34,5.34,0,0,1-1.23-3.46,19.59,19.59,0,0,1,.81-4.65q.49-1.75,1.36-4.17a41.48,41.48,0,0,0,1.4-4.65,10.79,10.79,0,0,0,.31-3.81,1.64,1.64,0,0,0-1.82-1.58,4.77,4.77,0,0,0-2.41.77,14.86,14.86,0,0,0-2.59,2,24,24,0,0,0-2.48,2.76,35.28,35.28,0,0,0-2.1,3q-.56,2.73-1.12,5.39-.49,2.24-1,4.86T259,331a2.5,2.5,0,0,1-.91.49,3.31,3.31,0,0,1-.91.14,7,7,0,0,1-1-.07,4.15,4.15,0,0,1-1-.42,4.73,4.73,0,0,1-.84-.73,2.89,2.89,0,0,1-.63-1.23q3.15-12.95,5-20.79t2.8-12q1.12-4.9,1.54-6.79.21-1.33.35-2.59a18.61,18.61,0,0,0,.14-2.31,10.37,10.37,0,0,0-.21-2.17,5.33,5.33,0,0,1,1.23-.56q.66-.21,1.29-.35t1.54-.35a7.85,7.85,0,0,1,1.4-.14,5,5,0,0,1,1,.11.79.79,0,0,1,.63.46,1.71,1.71,0,0,1,.39,1.4q0,1.05-.18,2.17-.28,1.33-.63,2.87-1.47,5.67-3.29,11t-3.36,11.44a27.25,27.25,0,0,1,2.17-2.87,21.52,21.52,0,0,1,2.76-2.69,16,16,0,0,1,3.19-2,8.16,8.16,0,0,1,3.57-.8,5.44,5.44,0,0,1,1.85.31,3.8,3.8,0,0,1,1.54,1.05,4.88,4.88,0,0,1,1,2,9.91,9.91,0,0,1,.28,3,11.45,11.45,0,0,1-.25,2.31q-.25,1.19-.67,2.63t-1.08,3.18q-.67,1.75-1.57,4.06-.63,1.61-1,2.73a2.35,2.35,0,0,0,.14,2q.63,1.12,2.48.52a20.7,20.7,0,0,0,5.56-3.6q.84-.7,1.89-1.75t2-2.13q1-1.08,1.82-2.06T290.55,314.92Z" transform="translate(-45.44 0)" fill="#2c2924"/><path d="M285.16,330a2.46,2.46,0,0,1-1.08,1,1.4,1.4,0,0,1-1,.07,1,1,0,0,1-.6-.74,2.09,2.09,0,0,1,.28-1.4l.94-1.89q.73-1.47,1.75-3.53l2.2-4.48q1.19-2.42,2.27-4.58t2-3.88q.91-1.71,1.33-2.48-.77-.7-1-1a2.8,2.8,0,0,1-.42-1.37,4.89,4.89,0,0,1,.42-2.38,14.16,14.16,0,0,1,1.47-2.83,11.75,11.75,0,0,1,2-2.34,3.36,3.36,0,0,1,2.17-1,3,3,0,0,1,2.76,1.26,6,6,0,0,1,.95,2.59,6.86,6.86,0,0,1-.14,2.31,6.7,6.7,0,0,1-1,2.52,5,5,0,0,0,.56.32,2.64,2.64,0,0,0,1.12.17,6.06,6.06,0,0,0,1.58-.14A5.29,5.29,0,0,1,305,306a3.11,3.11,0,0,1,2,.6,4.78,4.78,0,0,1,1.26,1.47A7.47,7.47,0,0,1,309,310a12.54,12.54,0,0,1,.32,1.85,5.74,5.74,0,0,1-.91,3.64q-1.12,1.89-2.73,4.13a37.07,37.07,0,0,0-2,3.15,5.42,5.42,0,0,0-.84,3.15,3.87,3.87,0,0,0,.49,1.47q.35.56,2,.56a5.13,5.13,0,0,0,2.63-.87,19.75,19.75,0,0,0,2.94-2.24,40.4,40.4,0,0,0,3-3q1.47-1.64,2.73-3.22t2.13-2.83q.87-1.26,1.29-1.82a1.81,1.81,0,0,1,.91-.77,1.19,1.19,0,0,1,1,0,1.05,1.05,0,0,1,.53.84,2.68,2.68,0,0,1-.53,1.68q-.42.7-1.43,2.24T318,321.36q-1.44,1.89-3.18,3.88a36.15,36.15,0,0,1-3.67,3.64,22.77,22.77,0,0,1-3.85,2.69,7.69,7.69,0,0,1-3.67,1,5.86,5.86,0,0,1-3-.7,6.24,6.24,0,0,1-1.92-1.71,6.55,6.55,0,0,1-1-2.24,7.21,7.21,0,0,1-.25-2.27,6.06,6.06,0,0,1,.46-1.79q.38-.94.91-2t1.12-2q.59-1,1.08-2,1.19-2,1.92-3.46a5.56,5.56,0,0,0,.74-2.42,2.22,2.22,0,0,0-.28-1.12,1,1,0,0,0-.91-.49,3.45,3.45,0,0,0-.6,0,1.77,1.77,0,0,1-.35,0l-.49,0a9,9,0,0,1-.94,0,3.77,3.77,0,0,1-1.54-.28,7.58,7.58,0,0,0-1.19-.42q-.28.49-1.26,2.1t-2.27,3.78l-2.73,4.55-2.7,4.44-2.13,3.5Q285.37,329.69,285.16,330Z" transform="translate(-45.44 0)" fill="#2c2924"/><path d="M322.67,304a2.69,2.69,0,0,1,1.33-.7,18.76,18.76,0,0,1,2-.46,15.84,15.84,0,0,1,1.92-.21,3.53,3.53,0,0,1,1,0,5.37,5.37,0,0,1-.35,1.47q-.42,1.4-1,3.29t-1.33,3.88q-.7,2-1.05,3.25t-.84,2.83q-.49,1.57-.87,3.08a19.81,19.81,0,0,0-.52,2.83,3.75,3.75,0,0,0,.21,2,2.74,2.74,0,0,0,.77,1.16,1.49,1.49,0,0,0,.91.31,6.61,6.61,0,0,0,3.54-1.54,39.47,39.47,0,0,0,4.34-3.67q2.21-2.13,4.09-4.34a44.06,44.06,0,0,0,2.8-3.54,2.68,2.68,0,0,1,1.16-.91,1,1,0,0,1,1,.07,1.14,1.14,0,0,1,.42.91,2.72,2.72,0,0,1-.46,1.47,37.07,37.07,0,0,1-3.29,4.65,69,69,0,0,1-4.62,5.18,42.48,42.48,0,0,1-4.79,4.24,7.76,7.76,0,0,1-3.82,1.82,5.48,5.48,0,0,1-2.34-.38,7.4,7.4,0,0,1-2.1-1.26,7.22,7.22,0,0,1-1.57-1.89,5.07,5.07,0,0,1-.7-2.28,26.8,26.8,0,0,1,0-4.79,59.39,59.39,0,0,1,.77-6.23,51,51,0,0,1,1.44-6.05A13,13,0,0,1,322.67,304Zm9.66-14.91a4.12,4.12,0,0,1-.8,1.5,5.3,5.3,0,0,1-1.33,1.19,4.3,4.3,0,0,1-1.5.59,1.44,1.44,0,0,1-1.26-.28,3.34,3.34,0,0,1-1.54-2.41,4.19,4.19,0,0,1,.63-2.45,7,7,0,0,1,1.75-2,4.54,4.54,0,0,1,1.82-.94,1.48,1.48,0,0,1,1.29.31,2.92,2.92,0,0,1,.8,1.19,5.18,5.18,0,0,1,.31,1.64A4.92,4.92,0,0,1,332.33,289.09Z" transform="translate(-45.44 0)" fill="#2c2924"/><path d="M346.47,327.94a1.91,1.91,0,0,0,1.08.28,3.4,3.4,0,0,0,1.33-.28,5.06,5.06,0,0,0,1.26-.77,2.87,2.87,0,0,0,.88-1.26,4.34,4.34,0,0,0,0-2.21,21.13,21.13,0,0,0-.87-3.08q-.6-1.64-1.29-3.32t-1.19-3.08q-.42-1.05-.7-2t-.53-1.5a9.3,9.3,0,0,0-.38-1q-.35.56-1.22,1.82t-1.89,2.62q-1,1.37-1.92,2.52t-1.26,1.57a2.09,2.09,0,0,1-1.08.74,1,1,0,0,1-.87-.21,1.27,1.27,0,0,1-.38-.91,2.47,2.47,0,0,1,.53-1.43q.42-.56,1.26-1.79t1.68-2.52q.84-1.29,1.54-2.31a8.8,8.8,0,0,0,.77-1.23,2.1,2.1,0,0,0-.38-1.47,2.58,2.58,0,0,1-.17-2.1,7.28,7.28,0,0,1,1.26-2.28,12.94,12.94,0,0,1,2.31-2.34,10.17,10.17,0,0,1,2.73-1.57,3,3,0,0,1,2.52,0,6.08,6.08,0,0,1,1.47,1.22,1.58,1.58,0,0,1,.42,1.37q-.14.35-.42.91a11.59,11.59,0,0,1-.84,1.37q-.56.81-1.61,2.06a19.73,19.73,0,0,0,.6,2.94q.38,1.33.73,2.31a18.9,18.9,0,0,0,.91,2.17q.63,1.26,1.33,2.59t1.26,2.62a25.17,25.17,0,0,1,.91,2.42,4.06,4.06,0,0,1,.21,1.89,8.85,8.85,0,0,1-1.23,2.87,18.81,18.81,0,0,1-2.52,3.25,15.52,15.52,0,0,1-3.43,2.69,7.9,7.9,0,0,1-4,1.12,5,5,0,0,1-2.83-.91,10,10,0,0,1-3.71-4.55,2.19,2.19,0,0,1-.1-1.82,10.2,10.2,0,0,1,.77-1.33,7.33,7.33,0,0,1,1-1.12l.7-.49a5,5,0,0,1,1-.42l1.47-.49a32.23,32.23,0,0,0,1.26,3.39q.56,1.23.91,1.92A3.51,3.51,0,0,0,346.47,327.94Z" transform="translate(-45.44 0)" fill="#2c2924"/><path d="M308.51,275.81a1.08,1.08,0,0,1,.56-.3.47.47,0,0,1,.41.12.46.46,0,0,1,.1.43,1.5,1.5,0,0,1-.41.68l-1.65,1.63a16.25,16.25,0,0,1-2,1.67,7.41,7.41,0,0,0,1.22,1.6,2.31,2.31,0,0,0,.83.51.71.71,0,0,1-.3.26l-.5.3-.66.36a4.16,4.16,0,0,1-1.49.46,2,2,0,0,1-1-.17,1.39,1.39,0,0,1-.61-.59,4.5,4.5,0,0,1-.35-.83.26.26,0,0,1,0-.17.14.14,0,0,0,0-.1,14.5,14.5,0,0,1-2.21.69,10.82,10.82,0,0,1-2.41.26,4.66,4.66,0,0,1-2.56-.63,4.07,4.07,0,0,1-1.45-1.55,5.38,5.38,0,0,1-.58-2,7.16,7.16,0,0,1,.07-2,9.15,9.15,0,0,1,1.9-4,43.58,43.58,0,0,1,4.28-4.73l.36-.33c.13-.11.25-.22.36-.33q0-.89,0-1.7t.12-1.57l.07-.58a5.48,5.48,0,0,1,.1-.58,8.12,8.12,0,0,1,1.06-2.82,7.64,7.64,0,0,1,1.6-1.85,5.88,5.88,0,0,1,1.72-1,4.45,4.45,0,0,1,1.44-.3,3.33,3.33,0,0,1,.88.13,2.19,2.19,0,0,1,.86.46,2.07,2.07,0,0,1,.58.89,3,3,0,0,1,.07,1.42,7.3,7.3,0,0,1-.41,1.42,8.28,8.28,0,0,1-.86,1.54,20,20,0,0,1-1.55,1.93q-1,1.09-2.46,2.61l-.25.23a1.48,1.48,0,0,0-.21.23,42.92,42.92,0,0,0,.71,5.85q.54,2.81,1,4.82c0,.18.08.3.1.36q.69-.43,1.29-.88t1-.84l.76-.69Zm-9.15,4.59a8,8,0,0,0,1.39-.12c.44-.08.88-.17,1.32-.28q-.3-1-.64-2.44t-.61-3.27q-.13-1-.21-1.92t-.15-1.88q-3.8,4.26-4.2,6.58a4,4,0,0,0,0,1,2.5,2.5,0,0,0,.4,1.09,2.58,2.58,0,0,0,1,.86A3.67,3.67,0,0,0,299.36,280.4Zm4-19.23a32.58,32.58,0,0,0-.3,3.4q1.59-1.55,2.71-2.78a4.64,4.64,0,0,0,1.29-2.18,1.73,1.73,0,0,0-.12-.91.67.67,0,0,0-.68-.45,2.15,2.15,0,0,0-1,.26,3.29,3.29,0,0,0-.88.68,4.21,4.21,0,0,0-.64.92A3.79,3.79,0,0,0,303.36,261.17Z" transform="translate(-45.44 0)" fill="#2c2924"/><path d="M494.19,183c5.78-3.93,11.38-5.82,23.34-7.76-12.65,4-18.33,7.15-25.9,12a57.21,57.21,0,0,0-3,5.78c-4,9.2-7.24,22.12-11.55,32.52,1.91-7.78,6.89-25.74,9.83-33.3q.35-.88.74-1.77c-3.76-11.72-10.85-22.74-17.92-32.23,8.11,8.59,15.41,18.64,19.22,29.55a126,126,0,0,1,7.24-11.66,124.6,124.6,0,0,0-6.79-31.91,5,5,0,0,0,.7-.08A87.62,87.62,0,0,1,497,174.88a44.66,44.66,0,0,0,3.39-5.68c1.22-2.72,4.85-26.34,6.55-33-.64,5.14-2.37,21.32-4,29.74,3.64-3.17,6.44-4.34,17.42-8.76a13.76,13.76,0,0,1-4,2.55,85.2,85.2,0,0,0-13.84,8.1,16.21,16.21,0,0,1-.78,2.68c-1.18,2.68-4.46,7.56-7.59,12.57Z" transform="translate(-45.44 0)" fill="#3d5c47" fill-rule="evenodd"/><path d="M505.92,161.68c-3.45.77-4.37,9.41,3.81,7.94,1.42-.25,1.95-9.23-3.81-7.94Z" transform="translate(-45.44 0)" fill="#486f56" fill-rule="evenodd"/><path d="M502.07,145.08c-.71,1.6-4,4.61,1.74,5.35,4.84.63,4.33-6.71-1.74-5.35Z" transform="translate(-45.44 0)" fill="#486f56" fill-rule="evenodd"/><path d="M502.13,154.79c-3.06.68-4.8,5.8-.93,4.93,5.26-1.18,2.85-5.36.93-4.93Z" transform="translate(-45.44 0)" fill="#486f56" fill-rule="evenodd"/><path d="M515.49,155.86c-4.6,5.87,2.37,8,3,2.72.21-1.66-2.18-3.78-3-2.72Z" transform="translate(-45.44 0)" fill="#486f56" fill-rule="evenodd"/><path d="M489.75,161.1c-5.9.74,3.79,9.33,1.86.7,0,0-1.77-.71-1.86-.7Z" transform="translate(-45.44 0)" fill="#486f56" fill-rule="evenodd"/><path d="M494.57,154.18c-2.63-2.46-6.89,8.62,2.13,5.24,1.37-.51-.67-4.82-2.2-5l.07-.26Z" transform="translate(-45.44 0)" fill="#486f56" fill-rule="evenodd"/><path d="M488.15,151.46c-2.9-.5-2.79,7.57,1.11,3.72.94-.92-1.13-3.73-1.11-3.72Z" transform="translate(-45.44 0)" fill="#486f56" fill-rule="evenodd"/><path d="M508.14,151.26c-3.13,1.34-1.67,8.14,2.3,4.65.65-.58.67-5.92-2.3-4.65Z" transform="translate(-45.44 0)" fill="#486f56" fill-rule="evenodd"/><path d="M506.56,134c-4.22,0-6.3,7.4,3.69,5.61.76-.14,1.35-5-3.18-5.36-.21,0-.32-.25-.51-.24Z" transform="translate(-45.44 0)" fill="#486f56" fill-rule="evenodd"/><path d="M495.53,147c-3.77-.14,1.08,4.07,1,1.94,0-1.79.35-1.89-1-1.94Z" transform="translate(-45.44 0)" fill="#486f56" fill-rule="evenodd"/><path d="M497.17,166.4c-4-2-5.78,5-2,4.13,2.15-.48,3.84-1.22,2.85-3.8a7.94,7.94,0,0,0-.81-.33Z" transform="translate(-45.44 0)" fill="#486f56" fill-rule="evenodd"/><path d="M514.91,163.72c-1.94.92-.64,4.61,1.25,2.5,1-1.1-.55-2.83-1.25-2.5Z" transform="translate(-45.44 0)" fill="#486f56" fill-rule="evenodd"/><path d="M510.93,141.49c-3.46.13-2,6.85,2.23,4.39.56-.32.6-3.51-1.36-3.73-.25,0-.75-.66-.87-.66Z" transform="translate(-45.44 0)" fill="#486f56" fill-rule="evenodd"/><path d="M487.92,142.68c-3.13,7,7.27,4.74,2.89.14a2.3,2.3,0,0,0-2.89-.14Z" transform="translate(-45.44 0)" fill="#486f56" fill-rule="evenodd"/><path d="M486.79,185.3c-3.45.77-8-6.65.06-8.81,1.39-.37,5.7,7.52-.06,8.81Z" transform="translate(-45.44 0)" fill="#486f56" fill-rule="evenodd"/><path d="M478.75,169.91c-1.32-1.14-5.56-2.48-.71-5.58,4.11-2.63,6.78,4.23.71,5.58Z" transform="translate(-45.44 0)" fill="#486f56" fill-rule="evenodd"/><path d="M510.54,181.62c-3.06.68-6.81-3.2-2.94-4.07,5.26-1.18,4.86,3.64,2.94,4.07Z" transform="translate(-45.44 0)" fill="#486f56" fill-rule="evenodd"/><path d="M480.37,161.37c-6.66-3.35-1.26-8.22,1.57-3.74.89,1.41-.37,4.35-1.57,3.74Z" transform="translate(-45.44 0)" fill="#486f56" fill-rule="evenodd"/><path d="M502.39,187.52c-5.65,1.85-.54-10.05,1.39-1.43,0,0-1.3,1.4-1.39,1.43Z" transform="translate(-45.44 0)" fill="#486f56" fill-rule="evenodd"/><path d="M503.33,181c-1.33,3.35-9.91-4.86-.3-5.65,1.46-.12,1.45,4.65.13,5.44l.17.21Z" transform="translate(-45.44 0)" fill="#486f56" fill-rule="evenodd"/><path d="M483.71,191.64c-2.41,1.69-5.75-5.66-.59-3.84,1.24.44.57,3.85.59,3.84Z" transform="translate(-45.44 0)" fill="#486f56" fill-rule="evenodd"/><path d="M471.35,163.23c-3.41.12-5-6.65.1-5.19.84.24,3.13,5.07-.1,5.19Z" transform="translate(-45.44 0)" fill="#486f56" fill-rule="evenodd"/><path d="M487.45,174.9c-3.83,1.76-8.85-4,1-6.65.75-.2,3.35,3.94-.59,6.21-.19.11-.18.36-.36.44Z" transform="translate(-45.44 0)" fill="#486f56" fill-rule="evenodd"/><path d="M508.15,175c-3.35,1.73-.76-4.14.11-2.2.73,1.63,1.12,1.56-.11,2.2Z" transform="translate(-45.44 0)" fill="#486f56" fill-rule="evenodd"/><path d="M498,191.13c-2.78,3.58-7.34-2-3.61-2.87,2.15-.48,4-.53,4.2,2.22a7.77,7.77,0,0,1-.59.65Z" transform="translate(-45.44 0)" fill="#486f56" fill-rule="evenodd"/><path d="M476.51,186.35c-2.15,0-2.54-3.9.07-2.79,1.36.58.7,2.8-.07,2.79Z" transform="translate(-45.44 0)" fill="#486f56" fill-rule="evenodd"/><path d="M515.72,178.05c-3.18,1.36-4.76-5.33.15-4.92.64.05,2,2.92.36,4-.21.13-.4.92-.5,1Z" transform="translate(-45.44 0)" fill="#486f56" fill-rule="evenodd"/><path d="M477,180.65c-5.8-5,4.55-7.39,2.55-1.36a2.29,2.29,0,0,1-2.55,1.36Z" transform="translate(-45.44 0)" fill="#486f56" fill-rule="evenodd"/><path d="M474.91,173.45c-3.35,1.74-.76-4.14.11-2.2.73,1.63,1.12,1.56-.11,2.2Z" transform="translate(-45.44 0)" fill="#486f56" fill-rule="evenodd"/></svg>